<svg width="84" height="39" viewBox="0 0 84 39" fill="none" xmlns="http://www.w3.org/2000/svg">
<g clip-path="url(#clip0_162_932)">
<path d="M0.316406 34.8517C0.486732 34.8093 0.711865 34.7636 0.991806 34.7154C1.27175 34.6671 1.59553 34.6434 1.96317 34.6434C2.22962 34.6434 2.45306 34.6798 2.63435 34.7518C2.81564 34.8237 2.96741 34.9295 3.08968 35.0684C3.12678 35.0413 3.1858 35.004 3.26591 34.9558C3.34601 34.9075 3.44466 34.861 3.56187 34.8153C3.67907 34.7696 3.80977 34.7298 3.95395 34.6951C4.09814 34.6604 4.25244 34.6426 4.41771 34.6426C4.73728 34.6426 4.99867 34.6891 5.20104 34.7831C5.40341 34.8771 5.56193 35.0091 5.6766 35.1801C5.79128 35.3511 5.86885 35.5543 5.90848 35.7896C5.94811 36.0249 5.96835 36.2814 5.96835 36.5599V38.903H5.22465V36.7207C5.22465 36.4744 5.21284 36.2636 5.18839 36.0867C5.16478 35.9106 5.11925 35.7633 5.05264 35.6457C4.98602 35.528 4.8958 35.4408 4.78113 35.385C4.66645 35.3291 4.51889 35.3012 4.33761 35.3012C4.08718 35.3012 3.88059 35.3342 3.71786 35.401C3.55512 35.4679 3.44466 35.528 3.38648 35.5813C3.42948 35.721 3.46068 35.8734 3.48261 36.0385C3.50369 36.2044 3.51465 36.3779 3.51465 36.5599V38.903H2.77095V36.7207C2.77095 36.4744 2.75746 36.2636 2.73132 36.0867C2.70434 35.9106 2.65796 35.7633 2.59135 35.6457C2.52474 35.528 2.43451 35.4408 2.31984 35.385C2.20516 35.3291 2.06013 35.3012 1.88391 35.3012C1.80886 35.3012 1.7296 35.3037 1.64444 35.3088C1.55928 35.3139 1.47749 35.3206 1.40076 35.3291C1.32318 35.3367 1.2532 35.3469 1.18911 35.357C1.12503 35.368 1.08203 35.3756 1.06095 35.3816V38.9039H0.316406V34.8517Z" fill="#231F20"/>
<path d="M6.96484 36.8245C6.96484 36.4554 7.01796 36.1329 7.12505 35.8578C7.23129 35.5827 7.37295 35.3533 7.54834 35.1721C7.72456 34.9901 7.92693 34.8538 8.15544 34.7632C8.38478 34.6727 8.61919 34.627 8.85866 34.627C9.4177 34.627 9.84689 34.8022 10.1454 35.1526C10.4439 35.5031 10.5931 36.0364 10.5931 36.7534V36.8778C10.5931 36.9286 10.5906 36.9751 10.5847 37.0183H7.73974C7.77178 37.4517 7.89657 37.781 8.11581 38.0053C8.33419 38.2297 8.67569 38.3422 9.1386 38.3422C9.39999 38.3422 9.61922 38.3194 9.79798 38.2737C9.97674 38.228 10.1108 38.1839 10.2019 38.1416L10.3056 38.7672C10.2145 38.8154 10.0568 38.8662 9.83002 38.9196C9.6032 38.9729 9.34687 39 9.0585 39C8.69592 39 8.3831 38.945 8.11918 38.8358C7.85526 38.7266 7.63856 38.575 7.46823 38.3829C7.29791 38.1907 7.17143 37.9613 7.08879 37.6964C7.00616 37.4314 6.96484 37.1419 6.96484 36.8262M9.81822 36.4173C9.82328 36.0804 9.7398 35.8036 9.5661 35.5869C9.39325 35.3702 9.15462 35.2618 8.85107 35.2618C8.68075 35.2618 8.52981 35.2948 8.39996 35.3617C8.26927 35.4286 8.15881 35.5158 8.06859 35.6224C7.97836 35.7299 7.90754 35.8527 7.85694 35.9915C7.80635 36.1303 7.77347 36.2725 7.75745 36.4165H9.8199L9.81822 36.4173Z" fill="#231F20"/>
<path d="M14.3511 32.8064L15.0939 32.6777V38.7835C14.9236 38.8318 14.7052 38.88 14.4387 38.9283C14.1723 38.9765 13.8662 39.0003 13.5197 39.0003C13.2001 39.0003 12.9126 38.9495 12.6562 38.8479C12.4007 38.7463 12.1824 38.6015 12.0011 38.4145C11.8198 38.2274 11.6798 37.9988 11.5812 37.7288C11.4825 37.4588 11.4336 37.1549 11.4336 36.818C11.4336 36.4811 11.4749 36.2026 11.5575 35.9351C11.6402 35.6676 11.7616 35.4373 11.921 35.2452C12.0812 35.0522 12.2768 34.9032 12.5087 34.7957C12.7405 34.689 13.0053 34.6357 13.3038 34.6357C13.5433 34.6357 13.7558 34.6679 13.9396 34.7322C14.1234 34.7965 14.2608 34.8583 14.3511 34.9167V32.8064ZM14.3511 35.6142C14.26 35.5398 14.1301 35.467 13.959 35.3975C13.7886 35.3281 13.6023 35.2934 13.3999 35.2934C13.1866 35.2934 13.0045 35.3324 12.8527 35.4094C12.7009 35.4873 12.577 35.5939 12.4808 35.7302C12.3847 35.8665 12.3156 36.0282 12.2734 36.2153C12.2304 36.4023 12.2093 36.603 12.2093 36.8171C12.2093 37.3039 12.3291 37.6797 12.5685 37.9447C12.808 38.2096 13.1284 38.3417 13.5272 38.3417C13.7296 38.3417 13.8991 38.3324 14.0349 38.3137C14.1706 38.2951 14.276 38.2748 14.3502 38.2536V35.6134L14.3511 35.6142Z" fill="#231F20"/>
<path d="M16.7415 33.9786C16.6083 33.9786 16.4953 33.9345 16.4017 33.8465C16.3081 33.7585 16.2617 33.6391 16.2617 33.4893C16.2617 33.3394 16.3081 33.2201 16.4017 33.1321C16.4953 33.044 16.6083 33 16.7415 33C16.8747 33 16.9877 33.044 17.0813 33.1321C17.1741 33.2201 17.2213 33.3394 17.2213 33.4893C17.2213 33.6391 17.1749 33.7585 17.0813 33.8465C16.9877 33.9345 16.8747 33.9786 16.7415 33.9786ZM17.1176 38.9052H16.3739V34.7328H17.1176V38.9052Z" fill="#231F20"/>
<path d="M19.7368 34.627C20.0353 34.627 20.2866 34.6659 20.4923 34.7429C20.6972 34.8208 20.8625 34.93 20.9881 35.0722C21.1129 35.2144 21.2023 35.3829 21.2554 35.5776C21.3085 35.7731 21.3355 35.9881 21.3355 36.2235V38.8307C21.2714 38.8417 21.1821 38.8561 21.0674 38.8747C20.9527 38.8933 20.8237 38.9111 20.6795 38.9272C20.5353 38.9433 20.3802 38.9577 20.2115 38.9712C20.0438 38.9847 19.8768 38.9915 19.7124 38.9915C19.478 38.9915 19.2621 38.967 19.0648 38.9196C18.8675 38.8713 18.6972 38.7951 18.553 38.691C18.4088 38.5869 18.2975 38.4489 18.2174 38.2779C18.1373 38.1069 18.0977 37.9012 18.0977 37.66C18.0977 37.4187 18.144 37.2316 18.2376 37.0666C18.3304 36.9007 18.4577 36.7669 18.6171 36.6653C18.7764 36.5637 18.9636 36.4884 19.1761 36.441C19.3894 36.3928 19.6129 36.3691 19.8473 36.3691C19.9215 36.3691 19.9991 36.3733 20.0792 36.3809C20.1593 36.3894 20.2352 36.3995 20.3068 36.4131C20.3785 36.4266 20.4417 36.4385 20.4949 36.4495C20.548 36.4605 20.5851 36.4681 20.607 36.4732V36.2649C20.607 36.1422 20.5935 36.0203 20.5674 35.9001C20.5404 35.7799 20.4923 35.6732 20.4232 35.5793C20.354 35.4853 20.2596 35.4108 20.1399 35.3549C20.0201 35.2991 19.8642 35.2711 19.6719 35.2711C19.4265 35.2711 19.2124 35.2889 19.0285 35.3236C18.8447 35.3583 18.7073 35.3947 18.6171 35.432L18.5294 34.814C18.6255 34.7709 18.7849 34.7302 19.0092 34.6896C19.2326 34.6498 19.4754 34.6295 19.7368 34.6295M19.8009 38.3685C19.9763 38.3685 20.1323 38.3643 20.268 38.3566C20.4038 38.349 20.5168 38.3338 20.6079 38.3126V37.0691C20.5547 37.042 20.4679 37.02 20.3481 37.0005C20.2284 36.9819 20.0834 36.9726 19.9122 36.9726C19.8001 36.9726 19.682 36.9811 19.5564 36.9963C19.4316 37.0124 19.3169 37.0454 19.2124 37.0962C19.1086 37.147 19.0218 37.2164 18.9527 37.3044C18.8835 37.3925 18.8489 37.5093 18.8489 37.6532C18.8489 37.9207 18.9341 38.1069 19.1044 38.211C19.2748 38.3152 19.5066 38.3676 19.8001 38.3676" fill="#231F20"/>
<path d="M24.1406 37.4279C24.1406 37.2196 24.1727 37.0334 24.2368 36.87C24.3008 36.7067 24.3868 36.5602 24.4965 36.429C24.6052 36.2978 24.7325 36.1835 24.8759 36.0836C25.0201 35.9846 25.1685 35.8983 25.3236 35.8229C24.929 35.4268 24.7325 35.0179 24.7325 34.5955C24.7325 34.3813 24.7688 34.1892 24.8405 34.0173C24.9121 33.8463 25.0108 33.7016 25.1364 33.5839C25.2612 33.4663 25.4105 33.3757 25.5842 33.3113C25.757 33.247 25.9476 33.2148 26.1559 33.2148C26.3641 33.2148 26.5598 33.247 26.7275 33.3113C26.8953 33.3757 27.0362 33.4612 27.1508 33.5678C27.2655 33.6745 27.3515 33.8032 27.4105 33.953C27.4696 34.1028 27.4982 34.2611 27.4982 34.4262C27.4982 34.6133 27.4679 34.7817 27.4063 34.9315C27.3448 35.0814 27.2621 35.2177 27.1584 35.3404C27.0547 35.4632 26.9358 35.5757 26.8026 35.6773C26.6694 35.7789 26.5277 35.8695 26.3793 35.9499L27.6745 37.2738C27.8557 36.9369 27.973 36.5628 28.0261 36.1505L28.6416 36.2309C28.6205 36.4502 28.5657 36.6897 28.478 36.9488C28.3903 37.2086 28.2664 37.466 28.1062 37.7233C28.2925 37.9265 28.4645 38.1271 28.6214 38.3252C28.7782 38.5233 28.9081 38.7154 29.0092 38.9025H28.2259C28.1618 38.7958 28.0834 38.6858 27.9898 38.5732C27.8962 38.4606 27.7993 38.3489 27.6981 38.2363C27.4797 38.4555 27.2267 38.6333 26.9392 38.7696C26.6517 38.9059 26.3211 38.9744 25.9484 38.9744C25.6019 38.9744 25.3144 38.9245 25.085 38.8263C24.8557 38.7273 24.671 38.602 24.5293 38.4488C24.3877 38.2964 24.2882 38.1296 24.23 37.9476C24.171 37.7656 24.1423 37.5921 24.1423 37.4262M24.886 37.4101C24.886 37.5066 24.9046 37.6107 24.9417 37.7233C24.9788 37.8359 25.0403 37.9383 25.1255 38.0323C25.2106 38.1262 25.3211 38.2033 25.4569 38.2651C25.5926 38.3269 25.7621 38.3573 25.9645 38.3573C26.2258 38.3573 26.467 38.3091 26.6879 38.2126C26.9088 38.1161 27.1045 37.9798 27.2756 37.8037L25.7174 36.2233C25.6213 36.2716 25.5243 36.3274 25.4257 36.3918C25.327 36.4561 25.2376 36.5348 25.1575 36.6288C25.0774 36.7227 25.0125 36.8336 24.9619 36.9615C24.9113 37.0901 24.886 37.24 24.886 37.411M26.8279 34.4499C26.8279 34.2679 26.768 34.1147 26.6483 33.9885C26.5286 33.8624 26.365 33.7998 26.1567 33.7998C25.9223 33.7998 25.7427 33.8709 25.6171 34.0122C25.4914 34.1536 25.429 34.3288 25.429 34.5379C25.429 34.8858 25.6103 35.2253 25.972 35.5571C26.0893 35.4987 26.1997 35.4344 26.3034 35.365C26.4071 35.2955 26.4982 35.2151 26.5749 35.1246C26.6525 35.034 26.7132 34.9332 26.7587 34.824C26.8043 34.7148 26.827 34.5904 26.827 34.4507" fill="#231F20"/>
<path d="M31.3516 36.8245C31.3516 36.4554 31.4047 36.1329 31.5118 35.8578C31.618 35.5827 31.7597 35.3533 31.9351 35.1721C32.1113 34.9901 32.3137 34.8538 32.5422 34.7632C32.7715 34.6727 33.0059 34.627 33.2454 34.627C33.8053 34.627 34.2336 34.8022 34.5321 35.1526C34.8306 35.5031 34.9798 36.0364 34.9798 36.7534V36.8778C34.9798 36.9286 34.9773 36.9751 34.9722 37.0183H32.1273C32.1593 37.4517 32.2841 37.781 32.5034 38.0053C32.7218 38.2297 33.0633 38.3422 33.5262 38.3422C33.7876 38.3422 34.0068 38.3194 34.1855 38.2737C34.3643 38.228 34.4984 38.1839 34.5894 38.1416L34.6931 38.7672C34.6021 38.8154 34.4436 38.8662 34.2176 38.9196C33.9908 38.9729 33.7344 39 33.4461 39C33.0835 39 32.7707 38.945 32.5067 38.8358C32.2428 38.7266 32.0261 38.575 31.8558 38.3829C31.6855 38.1907 31.559 37.9613 31.4764 37.6964C31.3937 37.4314 31.3524 37.1419 31.3524 36.8262M34.2058 36.4173C34.2108 36.0804 34.1274 35.8036 33.9537 35.5869C33.7808 35.3702 33.5422 35.2618 33.2386 35.2618C33.0683 35.2618 32.9174 35.2948 32.7875 35.3617C32.6568 35.4286 32.5464 35.5158 32.4561 35.6224C32.3659 35.7299 32.2951 35.8527 32.2445 35.9915C32.1939 36.1303 32.161 36.2725 32.145 36.4165H34.2075L34.2058 36.4173Z" fill="#231F20"/>
<path d="M36.0508 34.8528C36.2211 34.8104 36.4479 34.7647 36.7304 34.7165C37.0129 34.6682 37.3375 34.6445 37.7051 34.6445C38.0357 34.6445 38.3097 34.6911 38.5281 34.7851C38.7465 34.879 38.921 35.0094 39.0517 35.1787C39.1824 35.3471 39.2743 35.5494 39.3274 35.7848C39.3806 36.0201 39.4075 36.28 39.4075 36.5627V38.9058H38.6638V36.7235C38.6638 36.467 38.6461 36.2478 38.6116 36.0658C38.577 35.8838 38.5197 35.7365 38.4396 35.6248C38.3594 35.5122 38.2532 35.4309 38.12 35.3801C37.9868 35.3294 37.8215 35.304 37.6242 35.304C37.5441 35.304 37.4614 35.3065 37.3763 35.3116C37.2911 35.3167 37.2093 35.3234 37.1326 35.3319C37.055 35.3395 36.9859 35.3497 36.9252 35.3598C36.8636 35.3708 36.8198 35.3784 36.7936 35.3844V38.9067H36.0508V34.8545V34.8528Z" fill="#231F20"/>
<path d="M41.3335 34.7312H42.9078V35.3568H41.3335V37.2826C41.3335 37.4908 41.3496 37.6635 41.3816 37.7998C41.4136 37.9361 41.4617 38.0436 41.5258 38.1206C41.5899 38.1985 41.67 38.2527 41.7653 38.2848C41.8614 38.317 41.9727 38.3331 42.1009 38.3331C42.3243 38.3331 42.5047 38.3077 42.6405 38.2569C42.7763 38.2061 42.8707 38.1697 42.9238 38.1485L43.068 38.7665C42.993 38.8037 42.8631 38.8511 42.6759 38.907C42.4896 38.9629 42.2762 38.9917 42.0368 38.9917C41.7543 38.9917 41.5216 38.9553 41.3378 38.8833C41.1539 38.8113 41.0064 38.703 40.8942 38.5582C40.7821 38.4135 40.7037 38.2357 40.6581 38.0249C40.6126 37.8133 40.5898 37.5687 40.5898 37.291V33.5681L41.3335 33.4395V34.7312Z" fill="#231F20"/>
<path d="M43.5391 36.8245C43.5391 36.4554 43.5922 36.1329 43.6993 35.8578C43.8055 35.5827 43.9472 35.3533 44.1226 35.1721C44.2988 34.9901 44.5011 34.8538 44.7297 34.7632C44.959 34.6727 45.1934 34.627 45.4329 34.627C45.9928 34.627 46.4211 34.8022 46.7196 35.1526C47.0181 35.5031 47.1673 36.0364 47.1673 36.7534V36.8778C47.1673 36.9286 47.1648 36.9751 47.1597 37.0183H44.3148C44.3468 37.4517 44.4716 37.781 44.6909 38.0053C44.9093 38.2297 45.2499 38.3422 45.7137 38.3422C45.9751 38.3422 46.1943 38.3194 46.373 38.2737C46.5518 38.228 46.6859 38.1839 46.7769 38.1416L46.8806 38.7672C46.7896 38.8154 46.6311 38.8662 46.4051 38.9196C46.1783 38.9729 45.9219 39 45.6336 39C45.271 39 44.9582 38.945 44.6942 38.8358C44.4303 38.7266 44.2136 38.575 44.0433 38.3829C43.873 38.1907 43.7465 37.9613 43.6639 37.6964C43.5812 37.4314 43.5399 37.1419 43.5399 36.8262M46.3933 36.4173C46.3983 36.0804 46.3149 35.8036 46.142 35.5869C45.9692 35.3702 45.7305 35.2618 45.4261 35.2618C45.2558 35.2618 45.1049 35.2948 44.975 35.3617C44.8443 35.4286 44.7339 35.5158 44.6437 35.6224C44.5534 35.7299 44.4826 35.8527 44.432 35.9915C44.3814 36.1303 44.3485 36.2725 44.3325 36.4165H46.3941L46.3933 36.4173Z" fill="#231F20"/>
<path d="M49.7729 34.6426C49.837 34.6426 49.9103 34.6468 49.993 34.6544C50.0756 34.662 50.1566 34.6731 50.2367 34.6866C50.3168 34.7001 50.3901 34.7137 50.4567 34.7264C50.5233 34.7399 50.5722 34.7518 50.6043 34.7628L50.4761 35.4129C50.4171 35.3917 50.3201 35.3663 50.1844 35.3367C50.0486 35.3071 49.8741 35.2927 49.6608 35.2927C49.5225 35.2927 49.385 35.3079 49.2493 35.3367C49.1135 35.3663 49.0241 35.3867 48.9811 35.3968V38.903H48.2383V34.9075C48.4137 34.8432 48.6329 34.7831 48.8934 34.7272C49.1548 34.6714 49.4474 34.6426 49.7729 34.6426Z" fill="#231F20"/>
<path d="M52.0171 34.7312H53.5914V35.3568H52.0171V37.2826C52.0171 37.4908 52.0332 37.6635 52.0652 37.7998C52.0972 37.9361 52.1453 38.0436 52.2085 38.1206C52.2726 38.1985 52.3527 38.2527 52.448 38.2848C52.5441 38.317 52.6563 38.3331 52.7836 38.3331C53.007 38.3331 53.1866 38.3077 53.3232 38.2569C53.459 38.2061 53.5534 38.1697 53.6066 38.1485L53.7507 38.7665C53.6757 38.8037 53.5458 38.8511 53.3595 38.907C53.1732 38.9629 52.9598 38.9917 52.7204 38.9917C52.4379 38.9917 52.2052 38.9553 52.0214 38.8833C51.8375 38.8113 51.69 38.703 51.5778 38.5582C51.4657 38.4135 51.3873 38.2357 51.3417 38.0249C51.2962 37.8133 51.2734 37.5687 51.2734 37.291V33.5681L52.0171 33.4395V34.7312Z" fill="#231F20"/>
<path d="M55.8788 34.627C56.1773 34.627 56.4286 34.6659 56.6343 34.7429C56.8392 34.8208 57.0045 34.93 57.1301 35.0722C57.2549 35.2144 57.3443 35.3829 57.3983 35.5776C57.4514 35.7731 57.4784 35.9881 57.4784 36.2235V38.8307C57.4143 38.8417 57.3249 38.8561 57.2102 38.8747C57.0956 38.8933 56.9666 38.9111 56.8232 38.9272C56.679 38.9433 56.5239 38.9577 56.3561 38.9712C56.1883 38.9847 56.0213 38.9915 55.8569 38.9915C55.6225 38.9915 55.4066 38.967 55.2093 38.9196C55.012 38.8713 54.8417 38.7951 54.6975 38.691C54.5533 38.5869 54.442 38.4489 54.3619 38.2779C54.2818 38.1069 54.2422 37.9012 54.2422 37.66C54.2422 37.4187 54.2886 37.2316 54.3822 37.0666C54.4749 36.9007 54.6022 36.7669 54.7616 36.6653C54.9218 36.5637 55.1081 36.4884 55.3206 36.441C55.534 36.3928 55.7574 36.3691 55.9918 36.3691C56.066 36.3691 56.1436 36.3733 56.2237 36.3809C56.3038 36.3894 56.3797 36.3995 56.4514 36.4131C56.523 36.4266 56.5863 36.4385 56.6394 36.4495C56.6925 36.4605 56.7296 36.4681 56.7515 36.4732V36.2649C56.7515 36.1422 56.738 36.0203 56.7119 35.9001C56.6849 35.7799 56.6369 35.6732 56.5677 35.5793C56.4986 35.4853 56.4041 35.4108 56.2836 35.3549C56.163 35.2991 56.0078 35.2711 55.8156 35.2711C55.5702 35.2711 55.356 35.2889 55.1722 35.3236C54.9884 35.3583 54.851 35.3947 54.7607 35.432L54.6731 34.814C54.7692 34.7709 54.9285 34.7302 55.1528 34.6896C55.3763 34.6498 55.6191 34.6295 55.8797 34.6295M55.9438 38.3685C56.12 38.3685 56.2751 38.3643 56.4109 38.3566C56.5466 38.349 56.6596 38.3338 56.7507 38.3126V37.0691C56.6976 37.042 56.6107 37.02 56.491 37.0005C56.3713 36.9819 56.2262 36.9726 56.0551 36.9726C55.9429 36.9726 55.8249 36.9811 55.6992 36.9963C55.5744 37.0124 55.4598 37.0454 55.3552 37.0962C55.2515 37.147 55.1646 37.2164 55.0955 37.3044C55.0264 37.3925 54.9918 37.5093 54.9918 37.6532C54.9918 37.9207 55.0769 38.1069 55.2473 38.211C55.4176 38.3152 55.6495 38.3676 55.9429 38.3676" fill="#231F20"/>
<path d="M59.0735 33.9786C58.9403 33.9786 58.8273 33.9345 58.7337 33.8465C58.6401 33.7585 58.5938 33.6391 58.5938 33.4893C58.5938 33.3394 58.6401 33.2201 58.7337 33.1321C58.8273 33.044 58.9403 33 59.0735 33C59.2068 33 59.3197 33.044 59.4133 33.1321C59.5069 33.2201 59.5533 33.3394 59.5533 33.4893C59.5533 33.6391 59.5069 33.7585 59.4133 33.8465C59.3206 33.9345 59.2068 33.9786 59.0735 33.9786ZM59.4488 38.9052H58.7059V34.7328H59.4488V38.9052Z" fill="#231F20"/>
<path d="M60.7313 34.8528C60.9016 34.8104 61.1285 34.7647 61.4109 34.7165C61.6934 34.6682 62.018 34.6445 62.3857 34.6445C62.7162 34.6445 62.9902 34.6911 63.2086 34.7851C63.427 34.879 63.6016 35.0094 63.7322 35.1787C63.8629 35.3471 63.9549 35.5494 64.008 35.7848C64.0611 36.0201 64.0881 36.28 64.0881 36.5627V38.9058H63.3444V36.7235C63.3444 36.467 63.3267 36.2478 63.2929 36.0658C63.2584 35.8838 63.201 35.7365 63.1209 35.6248C63.0408 35.5122 62.9346 35.4309 62.8014 35.3801C62.6681 35.3294 62.5029 35.304 62.3056 35.304C62.2255 35.304 62.1428 35.3065 62.0577 35.3116C61.9725 35.3167 61.8916 35.3234 61.814 35.3319C61.7364 35.3395 61.6673 35.3497 61.6057 35.3598C61.5442 35.3708 61.5003 35.3784 61.4733 35.3844V38.9067H60.7305V34.8545L60.7313 34.8528Z" fill="#231F20"/>
<path d="M65.3164 34.8517C65.4867 34.8093 65.7119 34.7636 65.9918 34.7154C66.2717 34.6671 66.5955 34.6434 66.9632 34.6434C67.2296 34.6434 67.4531 34.6798 67.6344 34.7518C67.8156 34.8237 67.9674 34.9295 68.0905 35.0684C68.1276 35.0413 68.1866 35.004 68.2659 34.9558C68.346 34.9075 68.4447 34.861 68.5619 34.8153C68.6791 34.7696 68.8098 34.7298 68.9531 34.6951C69.0973 34.6604 69.2516 34.6426 69.4169 34.6426C69.7364 34.6426 69.9978 34.6891 70.2002 34.7831C70.4026 34.8771 70.5611 35.0091 70.6758 35.1801C70.7904 35.3511 70.868 35.5543 70.9076 35.7896C70.9473 36.0249 70.9675 36.2814 70.9675 36.5599V38.903H70.2238V36.7207C70.2238 36.4744 70.212 36.2636 70.1875 36.0867C70.1631 35.9106 70.1184 35.7633 70.0518 35.6457C69.9852 35.528 69.895 35.4408 69.7803 35.385C69.6656 35.3291 69.518 35.3012 69.3368 35.3012C69.0863 35.3012 68.8798 35.3342 68.717 35.401C68.5543 35.4679 68.4438 35.528 68.3856 35.5813C68.4286 35.721 68.4598 35.8734 68.4818 36.0385C68.5028 36.2044 68.5138 36.3779 68.5138 36.5599V38.903H67.7701V36.7207C67.7701 36.4744 67.7566 36.2636 67.7305 36.0867C67.7035 35.9106 67.6571 35.7633 67.5905 35.6457C67.5239 35.528 67.4337 35.4408 67.319 35.385C67.2043 35.3291 67.0593 35.3012 66.8839 35.3012C66.8089 35.3012 66.7296 35.3037 66.6444 35.3088C66.5593 35.3139 66.4775 35.3206 66.4008 35.3291C66.3232 35.3367 66.2532 35.3469 66.1891 35.357C66.125 35.368 66.0829 35.3756 66.0609 35.3816V38.9039H65.3181V34.8517H65.3164Z" fill="#231F20"/>
<path d="M71.9648 36.8245C71.9648 36.4554 72.018 36.1329 72.1251 35.8578C72.2313 35.5827 72.3729 35.3533 72.5483 35.1721C72.7246 34.9901 72.9269 34.8538 73.1554 34.7632C73.3848 34.6727 73.6192 34.627 73.8587 34.627C74.4185 34.627 74.8469 34.8022 75.1454 35.1526C75.4439 35.5031 75.5931 36.0364 75.5931 36.7534V36.8778C75.5931 36.9286 75.5906 36.9751 75.5855 37.0183H72.7406C72.7726 37.4517 72.8974 37.781 73.1167 38.0053C73.335 38.2297 73.6757 38.3422 74.1394 38.3422C74.4008 38.3422 74.6201 38.3194 74.7988 38.2737C74.9776 38.228 75.1117 38.1839 75.2027 38.1416L75.3064 38.7672C75.2154 38.8154 75.0568 38.8662 74.8309 38.9196C74.604 38.9729 74.3477 39 74.0593 39C73.6968 39 73.3839 38.945 73.12 38.8358C72.8561 38.7266 72.6394 38.575 72.4691 38.3829C72.2987 38.1907 72.1723 37.9613 72.0896 37.6964C72.007 37.4314 71.9657 37.1419 71.9657 36.8262M74.8191 36.4173C74.8241 36.0804 74.7406 35.8036 74.5678 35.5869C74.3941 35.3702 74.1563 35.2618 73.8519 35.2618C73.6816 35.2618 73.5307 35.2948 73.4008 35.3617C73.2701 35.4286 73.1597 35.5158 73.0694 35.6224C72.9792 35.7299 72.9084 35.8527 72.8578 35.9915C72.8072 36.1303 72.7743 36.2725 72.7583 36.4165H74.8199L74.8191 36.4173Z" fill="#231F20"/>
<path d="M76.6641 34.8528C76.8344 34.8104 77.0604 34.7647 77.3437 34.7165C77.6261 34.6682 77.9508 34.6445 78.3184 34.6445C78.6489 34.6445 78.923 34.6911 79.1414 34.7851C79.3598 34.879 79.5343 35.0094 79.665 35.1787C79.7957 35.3471 79.8876 35.5494 79.9407 35.7848C79.9938 36.0201 80.0208 36.28 80.0208 36.5627V38.9058H79.2771V36.7235C79.2771 36.467 79.2603 36.2478 79.2257 36.0658C79.1911 35.8838 79.1338 35.7365 79.0537 35.6248C78.9736 35.5122 78.8673 35.4309 78.7341 35.3801C78.6009 35.3294 78.4356 35.304 78.2383 35.304C78.1582 35.304 78.0756 35.3065 77.9904 35.3116C77.9053 35.3167 77.8235 35.3234 77.7467 35.3319C77.6692 35.3395 77.6 35.3497 77.5393 35.3598C77.4777 35.3708 77.4339 35.3784 77.4078 35.3844V38.9067H76.6649V34.8545L76.6641 34.8528Z" fill="#231F20"/>
<path d="M81.949 34.7312H83.5233V35.3568H81.949V37.2826C81.949 37.4908 81.9651 37.6635 81.9971 37.7998C82.0291 37.9361 82.0772 38.0436 82.1413 38.1206C82.2054 38.1985 82.2855 38.2527 82.3808 38.2848C82.4769 38.317 82.589 38.3331 82.7163 38.3331C82.9398 38.3331 83.1202 38.3077 83.256 38.2569C83.3918 38.2061 83.4862 38.1697 83.5393 38.1485L83.6835 38.7665C83.6093 38.8037 83.4786 38.8511 83.2923 38.907C83.1059 38.9629 82.8926 38.9917 82.6531 38.9917C82.3706 38.9917 82.1379 38.9553 81.9541 38.8833C81.7703 38.8113 81.6227 38.703 81.5106 38.5582C81.3984 38.4135 81.32 38.2357 81.2745 38.0249C81.229 37.8133 81.207 37.5687 81.207 37.291V33.5681L81.9499 33.4395V34.7312H81.949Z" fill="#231F20"/>
<path d="M17.9685 24.8448C17.4778 24.9921 16.9145 25.1343 16.2779 25.2689C15.6404 25.4043 14.9735 25.5212 14.2753 25.6194C13.5771 25.7176 12.8663 25.7971 12.1437 25.8589C11.4211 25.9199 10.7288 25.9512 10.0678 25.9512C8.47496 25.9512 7.05502 25.7176 5.8054 25.2503C4.55579 24.7839 3.50264 24.1134 2.6451 23.2398C1.78757 22.3671 1.13241 21.3098 0.679616 20.0672C0.225976 18.827 0 17.4303 0 15.8812C0 14.3321 0.195621 12.8871 0.587707 11.6208C0.97895 10.3544 1.54305 9.2785 2.27831 8.39306C3.01358 7.50762 3.91327 6.83126 4.97907 6.364C6.04487 5.89757 7.26329 5.66309 8.63517 5.66309C9.39404 5.66309 10.0737 5.73674 10.6749 5.88403C11.2752 6.03132 11.8815 6.24125 12.4936 6.51129V0.88544L17.9685 0V24.8448ZM5.58533 15.623C5.58533 17.3203 5.96477 18.6848 6.72449 19.7176C7.48336 20.7503 8.61071 21.2666 10.1049 21.2666C10.5948 21.2666 11.0476 21.248 11.4641 21.2116C11.8806 21.1744 12.223 21.1321 12.4928 21.0821V11.0849C12.1496 10.864 11.7027 10.6795 11.1513 10.5313C10.5998 10.384 10.0425 10.3104 9.47921 10.3104C6.88216 10.3104 5.58449 12.0813 5.58449 15.6222" fill="#231F20"/>
<path d="M22.1953 15.917C22.1953 14.1961 22.4584 12.6893 22.9854 11.3984C23.5115 10.1075 24.2038 9.03159 25.0613 8.1707C25.9189 7.30981 26.9046 6.658 28.0193 6.21528C29.134 5.77256 30.279 5.55078 31.4553 5.55078C34.1982 5.55078 36.3661 6.3939 37.9597 8.07759C39.5517 9.76212 40.3485 12.2407 40.3485 15.5107C40.3485 15.8307 40.3358 16.1811 40.3114 16.5621C40.2869 16.9438 40.2625 17.2816 40.238 17.5762H27.8177C27.94 18.7079 28.467 19.6052 29.3979 20.2689C30.3288 20.9334 31.5776 21.2652 33.1459 21.2652C34.1501 21.2652 35.1358 21.173 36.1038 20.9884C37.071 20.8039 37.861 20.577 38.474 20.3061L39.2085 24.7697C38.9142 24.917 38.5221 25.0652 38.0331 25.2125C37.5423 25.3598 36.9976 25.4893 36.3981 25.6002C35.7977 25.7111 35.1544 25.8033 34.4689 25.877C33.7825 25.9506 33.097 25.9879 32.4115 25.9879C30.672 25.9879 29.1593 25.7297 27.8734 25.2133C26.5875 24.6969 25.5217 23.9901 24.6768 23.092C23.832 22.1947 23.2071 21.1315 22.8033 19.9015C22.3994 18.6724 22.197 17.3442 22.197 15.917M35.0574 13.8143C35.033 13.3479 34.9529 12.8925 34.8188 12.4498C34.6839 12.007 34.4756 11.6143 34.194 11.2697C33.9124 10.9252 33.5565 10.6425 33.1282 10.4215C32.699 10.2006 32.1661 10.0897 31.5295 10.0897C30.8929 10.0897 30.3903 10.1947 29.9493 10.4029C29.5084 10.612 29.1407 10.8888 28.8473 11.2325C28.553 11.577 28.3262 11.9766 28.1677 12.432C28.0083 12.8874 27.8919 13.3487 27.8186 13.8152H35.0574V13.8143Z" fill="#231F20"/>
<path d="M43.6523 15.917C43.6523 14.1961 43.9154 12.6893 44.4424 11.3984C44.9686 10.1075 45.6608 9.03159 46.5184 8.1707C47.3759 7.30981 48.3616 6.658 49.4763 6.21528C50.591 5.77256 51.7361 5.55078 52.9123 5.55078C55.6552 5.55078 57.8231 6.3939 59.4167 8.07759C61.0087 9.76212 61.8055 12.2407 61.8055 15.5107C61.8055 15.8307 61.7929 16.1811 61.7684 16.5621C61.7439 16.9438 61.7195 17.2816 61.695 17.5762H49.2748C49.397 18.7079 49.924 19.6052 50.8549 20.2689C51.7858 20.9334 53.0346 21.2652 54.6029 21.2652C55.6072 21.2652 56.5929 21.173 57.5609 20.9884C58.528 20.8039 59.3181 20.577 59.9311 20.3061L60.6655 24.7697C60.3712 24.917 59.9791 25.0652 59.4901 25.2125C58.9993 25.3598 58.4546 25.4893 57.8551 25.6002C57.2548 25.7111 56.6114 25.8033 55.9259 25.877C55.2395 25.9506 54.554 25.9879 53.8685 25.9879C52.129 25.9879 50.6163 25.7297 49.3304 25.2133C48.0445 24.6969 46.9788 23.9901 46.1339 23.092C45.289 22.1947 44.6642 21.1315 44.2603 19.9015C43.8564 18.6724 43.654 17.3442 43.654 15.917M56.5144 13.8143C56.49 13.3479 56.4099 12.8925 56.2758 12.4498C56.1409 12.007 55.9326 11.6143 55.651 11.2697C55.3694 10.9252 55.0136 10.6425 54.5852 10.4215C54.156 10.2006 53.624 10.0897 52.9865 10.0897C52.3491 10.0897 51.8474 10.1947 51.4064 10.4029C50.9654 10.612 50.5977 10.8888 50.3043 11.2325C50.01 11.577 49.7832 11.9766 49.6247 12.432C49.4645 12.8874 49.349 13.3487 49.2756 13.8152H56.5144V13.8143Z" fill="#231F20"/>
<path d="M66.0321 6.73138C66.522 6.58409 67.0852 6.44187 67.7219 6.30728C68.3593 6.17184 69.0263 6.05502 69.7245 5.95683C70.4226 5.85863 71.1334 5.77906 71.856 5.71727C72.5787 5.65632 73.2709 5.625 73.932 5.625C75.5248 5.625 76.9447 5.85863 78.1943 6.3259C79.444 6.79317 80.4971 7.46275 81.3546 8.33634C82.2122 9.20909 82.8673 10.2664 83.3201 11.509C83.7738 12.75 83.9998 14.1467 83.9998 15.6958C83.9998 17.2449 83.8041 18.6899 83.412 19.9563C83.0208 21.2226 82.4567 22.2985 81.7214 23.184C80.9862 24.0694 80.0865 24.7449 79.0207 25.213C77.9549 25.6795 76.7365 25.9139 75.3646 25.9139C74.6057 25.9139 73.9261 25.8403 73.3249 25.6922C72.7245 25.5449 72.1183 25.3349 71.5061 25.0649V30.6907L66.0312 31.5762V6.73138H66.0321ZM78.4153 15.954C78.4153 14.2568 78.0358 12.8922 77.2761 11.8595C76.5172 10.8267 75.3899 10.3104 73.8957 10.3104C73.4058 10.3104 72.953 10.329 72.5365 10.3654C72.12 10.4027 71.7776 10.445 71.5078 10.4949V20.4921C71.851 20.713 72.2979 20.8976 72.8493 21.0457C73.4008 21.193 73.9581 21.2675 74.5214 21.2675C77.1184 21.2675 78.4161 19.4966 78.4161 15.9557" fill="#231F20"/>
</g>
<defs>
<clipPath id="clip0_162_932">
<rect width="84" height="39" fill="white"/>
</clipPath>
</defs>
</svg>
