<svg width="37" height="50" viewBox="0 0 37 50" fill="none" xmlns="http://www.w3.org/2000/svg">
<path d="M4.03398 16.2874C3.56743 16.6837 3.02122 16.8818 2.39536 16.8818C1.76949 16.8818 1.19483 16.6837 0.733969 16.2874C0.267415 15.8911 0.0341381 15.3136 0.0341381 14.5607V2.34941C0.0341381 1.59647 0.267415 1.01902 0.733969 0.622736C1.19483 0.226449 1.75242 0.0283062 2.39536 0.0283062C3.03829 0.0283062 3.56743 0.226449 4.03398 0.622736C4.49485 1.01902 4.72813 1.59647 4.72813 2.34941V14.5607C4.72813 15.3136 4.49485 15.8911 4.03398 16.2874ZM17.8485 4.69316H12.3921C11.7663 4.69316 11.4533 4.93093 11.4533 5.40082C11.4533 5.8707 11.7663 6.10847 12.3921 6.10847H16.2327C19.5725 6.20471 21.2396 8.00498 21.2396 11.5093C21.2396 15.0136 19.4758 16.9101 15.9539 16.9101H9.8716C8.33538 16.9101 7.58435 16.1288 7.62417 14.5607C7.664 12.9925 8.42073 12.2113 9.90005 12.2113H16.2099C16.8358 12.2113 17.1487 11.9735 17.1487 11.5036C17.1487 11.0337 16.8358 10.796 16.2099 10.796H12.3694C9.02953 10.6997 7.36245 8.89946 7.36245 5.39515C7.36245 1.89085 9.13194 0 12.6994 0H17.877C19.4132 0 20.1642 0.78125 20.1244 2.34941C20.0846 3.91757 19.3278 4.69882 17.8485 4.69882V4.69316ZM34.2576 6.10847C34.9972 6.10847 35.5776 6.34058 35.9929 6.8048C36.4083 7.26336 36.6188 7.81816 36.6188 8.45788C36.6188 9.0976 36.4083 9.6524 35.9929 10.1166C35.5776 10.5752 34.9972 10.8073 34.2576 10.8073H28.1639V12.2226H34.2576C34.9972 12.2226 35.5776 12.4547 35.9929 12.9189C36.4083 13.3775 36.6188 13.9323 36.6188 14.572C36.6188 15.2117 36.4083 15.7665 35.9929 16.2308C35.5776 16.6893 34.9972 16.9214 34.2576 16.9214H25.8312C24.2779 16.9214 23.4984 16.1402 23.4984 14.572V2.34941C23.4984 0.78125 24.2779 0 25.8312 0H34.2576C34.9972 0 35.5776 0.232111 35.9929 0.696332C36.4083 1.15489 36.6188 1.70969 36.6188 2.34941C36.6188 2.98913 36.4083 3.54393 35.9929 4.00815C35.5776 4.46671 34.9972 4.69882 34.2576 4.69882H28.1639V6.11413H34.2576V6.10847ZM8.19314 27.9212L12.2328 32.6427C12.614 33.0786 12.8018 33.5654 12.8018 34.1146C12.8018 34.4373 12.7335 34.7373 12.5913 35.0204C12.449 35.3034 12.2613 35.5469 12.0337 35.7563C11.8061 35.9658 11.5444 36.1356 11.2542 36.2659C10.9583 36.3961 10.6568 36.464 10.3552 36.464C9.63263 36.464 9.02953 36.164 8.53452 35.5582L4.69399 30.3555V34.1146C4.69399 34.8675 4.46071 35.445 3.99985 35.8413C3.53329 36.2375 2.98708 36.4357 2.36122 36.4357C1.73535 36.4357 1.1607 36.2375 0.699831 35.8413C0.233277 35.445 0 34.8675 0 34.1146V21.8976C0 21.1447 0.233277 20.5673 0.699831 20.171C1.1607 19.7747 1.71828 19.5765 2.36122 19.5765C3.00415 19.5765 3.53329 19.7747 3.99985 20.171C4.46071 20.5673 4.69399 21.1447 4.69399 21.8976V25.6567L8.50607 20.3691C8.77349 20.0861 9.04659 19.8709 9.33108 19.7181C9.61556 19.5652 9.94556 19.4916 10.3268 19.4916C10.6511 19.4916 10.9583 19.5596 11.2542 19.6898C11.5444 19.82 11.8061 19.9898 12.0337 20.1993C12.2613 20.4087 12.4433 20.6578 12.5742 20.9522C12.7051 21.2409 12.7733 21.541 12.7733 21.841C12.7733 22.3902 12.5913 22.8714 12.2328 23.2846L8.19314 27.9212ZM29.8481 35.2185C29.5465 35.745 29.1084 36.113 28.5394 36.3225C27.9306 36.5489 27.3389 36.5659 26.7643 36.3678C26.1839 36.1696 25.7629 35.7111 25.4955 34.9921L25.1541 34.1712H19.1856L18.8158 34.9921C18.5484 35.7111 18.1273 36.1696 17.5527 36.3678C16.9723 36.5659 16.3806 36.5489 15.7718 36.3225C15.2028 36.113 14.7647 35.745 14.4632 35.2185C14.1616 34.692 14.1389 34.0693 14.4063 33.3503L16.9666 27.6947C17.234 26.9758 17.6551 26.5172 18.2354 26.3077C18.8101 26.0983 19.4018 26.1096 20.0106 26.3361C20.5796 26.5625 21.0177 26.9418 21.3192 27.4683C21.6208 27.9948 21.6436 28.6175 21.3761 29.3365L21.0917 29.9592H23.396L20.352 22.6902C20.0846 21.9712 20.1073 21.3485 20.4089 20.822C20.7104 20.2955 21.1485 19.9162 21.7175 19.6898C22.3263 19.4633 22.918 19.452 23.4984 19.6615C24.073 19.8709 24.4941 20.3295 24.7615 21.0485L29.905 33.3503C30.1724 34.0693 30.1496 34.692 29.8481 35.2185ZM35.9247 35.8413C35.4581 36.2375 34.9119 36.4357 34.286 36.4357C33.6602 36.4357 33.0855 36.2375 32.6246 35.8413C32.1581 35.445 31.9248 34.8675 31.9248 34.1146V21.8976C31.9248 21.1447 32.1581 20.5673 32.6246 20.171C33.0855 19.7747 33.6431 19.5765 34.286 19.5765C34.929 19.5765 35.4581 19.7747 35.9247 20.171C36.3855 20.5673 36.6188 21.1447 36.6188 21.8976V34.1146C36.6188 34.8675 36.3855 35.445 35.9247 35.8413ZM6.85607 42.8442H2.75381V43.6707H6.86176C7.29417 43.6707 7.62986 43.8066 7.87452 44.0784C8.11918 44.3444 8.23866 44.6728 8.23866 45.0464C8.23866 45.4201 8.11349 45.7484 7.87452 46.0202C7.62986 46.2862 7.29417 46.4221 6.86176 46.4221H2.75381V48.6243C2.75381 49.0659 2.61725 49.4056 2.34984 49.6377C2.07673 49.8698 1.75811 49.983 1.39397 49.983C1.02983 49.983 0.71121 49.8641 0.443795 49.6377C0.17069 49.4056 0.0341381 49.0659 0.0341381 48.6243V41.4629C0.0341381 40.5457 0.489313 40.0872 1.39397 40.0872H6.86176C7.29417 40.0872 7.62986 40.2231 7.87452 40.4948C8.11918 40.7609 8.23866 41.0892 8.23866 41.4629C8.23866 41.8365 8.11349 42.1649 7.87452 42.4366C7.62986 42.7027 7.29417 42.8385 6.86176 42.8385L6.85607 42.8442ZM16.6366 43.6707C17.069 43.6707 17.4047 43.8066 17.6494 44.0784C17.8941 44.3444 18.0135 44.6728 18.0135 45.0464C18.0135 45.4201 17.8884 45.7484 17.6494 46.0202C17.4047 46.2862 17.069 46.4221 16.6366 46.4221H12.5287V47.2486H16.6366C17.069 47.2486 17.4047 47.3845 17.6494 47.6562C17.8941 47.9223 18.0135 48.2507 18.0135 48.6243C18.0135 48.998 17.8884 49.3263 17.6494 49.5981C17.4047 49.8641 17.069 50 16.6366 50H11.1688C10.2642 50 9.80901 49.5414 9.80901 48.6243V41.4629C9.80901 40.5457 10.2642 40.0872 11.1688 40.0872H16.6366C17.069 40.0872 17.4047 40.2231 17.6494 40.4948C17.8941 40.7609 18.0135 41.0892 18.0135 41.4629C18.0135 41.8365 17.8884 42.1649 17.6494 42.4366C17.4047 42.7027 17.069 42.8385 16.6366 42.8385H12.5287V43.6651H16.6366V43.6707ZM25.7799 42.8442H22.5994C22.2353 42.8442 22.0532 42.9857 22.0532 43.2575C22.0532 43.5292 22.2353 43.6707 22.5994 43.6707H24.8355C26.7813 43.7274 27.7486 44.7803 27.7486 46.8354C27.7486 48.8904 26.7187 50 24.6648 50H21.1201C20.2268 50 19.7887 49.5414 19.8115 48.6243C19.8342 47.7072 20.278 47.2486 21.1372 47.2486H24.8127C25.1768 47.2486 25.3589 47.1071 25.3589 46.8354C25.3589 46.5636 25.1768 46.4221 24.8127 46.4221H22.5767C20.6308 46.3655 19.6635 45.3125 19.6635 43.2575C19.6635 41.2024 20.6991 40.0928 22.7758 40.0928H25.7913C26.6846 40.0928 27.1227 40.5514 27.1 41.4685C27.0772 42.3856 26.6334 42.8442 25.7743 42.8442H25.7799ZM36.6416 42.4423C36.3969 42.7083 36.0612 42.8442 35.6288 42.8442H34.1438V48.63C34.1438 49.0716 34.0072 49.4112 33.7398 49.6433C33.4667 49.8755 33.1424 49.9887 32.7669 49.9887C32.3914 49.9887 32.0841 49.8698 31.8167 49.6433C31.5436 49.4112 31.407 49.0716 31.407 48.63V42.8442H29.6489C29.2165 42.8442 28.8808 42.7083 28.6362 42.4423C28.3915 42.1705 28.272 41.8478 28.272 41.4685C28.272 41.0892 28.3972 40.7665 28.6362 40.5005C28.8808 40.2287 29.2165 40.0928 29.6489 40.0928H35.6231C36.0555 40.0928 36.3912 40.2287 36.6359 40.5005C36.8805 40.7665 37 41.0949 37 41.4685C37 41.8422 36.8748 42.1705 36.6359 42.4423H36.6416Z" fill="white"/>
</svg>
