<svg width="70" height="95" viewBox="0 0 70 95" fill="none" xmlns="http://www.w3.org/2000/svg">
<path d="M7.63186 30.946C6.74919 31.6989 5.71582 32.0754 4.53175 32.0754C3.34769 32.0754 2.2605 31.6989 1.38859 30.946C0.50592 30.193 0.0645856 29.0959 0.0645856 27.6653V4.46388C0.0645856 3.03329 0.50592 1.93614 1.38859 1.1832C2.2605 0.430254 3.31539 0.0537817 4.53175 0.0537817C5.74812 0.0537817 6.74919 0.430254 7.63186 1.1832C8.50377 1.93614 8.9451 3.03329 8.9451 4.46388V27.6653C8.9451 29.0959 8.50377 30.193 7.63186 30.946ZM33.7675 8.91701H23.4446C22.2605 8.91701 21.6685 9.36877 21.6685 10.2615C21.6685 11.1543 22.2605 11.6061 23.4446 11.6061H30.7104C37.0291 11.7889 40.183 15.2095 40.183 21.8676C40.183 28.5258 36.8461 32.1292 30.183 32.1292H18.676C15.7696 32.1292 14.3488 30.6448 14.4241 27.6653C14.4995 24.6858 15.9311 23.2014 18.7298 23.2014H30.6674C31.8515 23.2014 32.4435 22.7497 32.4435 21.8569C32.4435 20.9641 31.8515 20.5123 30.6674 20.5123H23.4015C17.0829 20.3295 13.929 16.909 13.929 10.2508C13.929 3.59262 17.2766 0 24.0258 0H33.8213C36.7277 0 38.1485 1.48438 38.0732 4.46388C37.9978 7.44339 36.5662 8.92776 33.7675 8.92776V8.91701ZM64.8116 11.6061C66.211 11.6061 67.3089 12.0471 68.0947 12.9291C68.8805 13.8004 69.2788 14.8545 69.2788 16.07C69.2788 17.2854 68.8805 18.3396 68.0947 19.2216C67.3089 20.0928 66.211 20.5339 64.8116 20.5339H53.2831V23.2229H64.8116C66.211 23.2229 67.3089 23.6639 68.0947 24.546C68.8805 25.4172 69.2788 26.4714 69.2788 27.6868C69.2788 28.9023 68.8805 29.9564 68.0947 30.8384C67.3089 31.7097 66.211 32.1507 64.8116 32.1507H48.8698C45.9311 32.1507 44.4564 30.6663 44.4564 27.6868V4.46388C44.4564 1.48438 45.9311 0 48.8698 0H64.8116C66.211 0 67.3089 0.44101 68.0947 1.32303C68.8805 2.19429 69.2788 3.24841 69.2788 4.46388C69.2788 5.67935 68.8805 6.73347 68.0947 7.61549C67.3089 8.48675 66.211 8.92776 64.8116 8.92776H53.2831V11.6168H64.8116V11.6061ZM15.5005 53.0503L23.1432 62.0211C23.8644 62.8493 24.2196 63.7743 24.2196 64.8177C24.2196 65.4308 24.0904 66.0009 23.8213 66.5387C23.5522 67.0765 23.197 67.5391 22.7664 67.937C22.3358 68.335 21.8407 68.6577 21.2917 68.9051C20.732 69.1525 20.1615 69.2816 19.591 69.2816C18.2239 69.2816 17.0829 68.7115 16.1464 67.5606L8.88052 57.6755V64.8177C8.88052 66.2483 8.43918 67.3455 7.56728 68.0984C6.68461 68.8513 5.65124 69.2278 4.46717 69.2278C3.2831 69.2278 2.19591 68.8513 1.324 68.0984C0.441335 67.3455 0 66.2483 0 64.8177V41.6055C0 40.1749 0.441335 39.0778 1.324 38.3248C2.19591 37.5719 3.25081 37.1954 4.46717 37.1954C5.68353 37.1954 6.68461 37.5719 7.56728 38.3248C8.43918 39.0778 8.88052 40.1749 8.88052 41.6055V48.7477L16.0926 38.7013C16.5985 38.1635 17.1152 37.7548 17.6534 37.4643C18.1916 37.1739 18.8159 37.0341 19.5371 37.0341C20.1507 37.0341 20.732 37.1632 21.2917 37.4106C21.8407 37.6579 22.3358 37.9806 22.7664 38.3786C23.197 38.7766 23.5414 39.2499 23.789 39.8092C24.0366 40.3578 24.1658 40.9279 24.1658 41.498C24.1658 42.5413 23.8213 43.4556 23.1432 44.2408L15.5005 53.0503ZM56.4693 66.9152C55.8988 67.9155 55.07 68.6147 53.9935 69.0127C52.8418 69.4429 51.7223 69.4752 50.6351 69.0987C49.5371 68.7223 48.7406 67.851 48.2347 66.4849L47.5888 64.9253H36.2971L35.5974 66.4849C35.0915 67.851 34.2949 68.7223 33.2078 69.0987C32.1098 69.4752 30.9903 69.4429 29.8385 69.0127C28.7621 68.6147 27.9333 67.9155 27.3628 66.9152C26.7923 65.9148 26.7492 64.7317 27.2551 63.3656L32.099 52.62C32.605 51.254 33.4015 50.3827 34.4995 49.9847C35.5867 49.5867 36.7061 49.6082 37.8579 50.0385C38.9343 50.4688 39.7632 51.1894 40.3337 52.1898C40.9042 53.1901 40.9473 54.3733 40.4413 55.7394L39.9031 56.9226H44.2626L38.5038 43.1114C37.9978 41.7454 38.0409 40.5622 38.6114 39.5618C39.1819 38.5615 40.0108 37.8408 41.0872 37.4106C42.239 36.9803 43.3585 36.9588 44.4564 37.3568C45.5436 37.7548 46.3401 38.626 46.8461 39.9921L56.577 63.3656C57.0829 64.7317 57.0398 65.9148 56.4693 66.9152ZM67.9656 68.0984C67.0829 68.8513 66.0495 69.2278 64.8654 69.2278C63.6814 69.2278 62.5942 68.8513 61.7223 68.0984C60.8396 67.3455 60.3983 66.2483 60.3983 64.8177V41.6055C60.3983 40.1749 60.8396 39.0778 61.7223 38.3248C62.5942 37.5719 63.6491 37.1954 64.8654 37.1954C66.0818 37.1954 67.0829 37.5719 67.9656 38.3248C68.8375 39.0778 69.2788 40.1749 69.2788 41.6055V64.8177C69.2788 66.2483 68.8375 67.3455 67.9656 68.0984ZM12.9709 81.404H5.2099V82.9744H12.9817C13.7998 82.9744 14.4349 83.2326 14.8977 83.7489C15.3606 84.2544 15.5867 84.8783 15.5867 85.5882C15.5867 86.2981 15.3498 86.922 14.8977 87.4383C14.4349 87.9438 13.7998 88.202 12.9817 88.202H5.2099V92.3862C5.2099 93.2252 4.95156 93.8706 4.44564 94.3116C3.92896 94.7526 3.32616 94.9677 2.63724 94.9677C1.94833 94.9677 1.34553 94.7419 0.839613 94.3116C0.322928 93.8706 0.0645856 93.2252 0.0645856 92.3862V78.7794C0.0645856 77.0369 0.925727 76.1656 2.63724 76.1656H12.9817C13.7998 76.1656 14.4349 76.4238 14.8977 76.9401C15.3606 77.4456 15.5867 78.0695 15.5867 78.7794C15.5867 79.4894 15.3498 80.1132 14.8977 80.6295C14.4349 81.1351 13.7998 81.3932 12.9817 81.3932L12.9709 81.404ZM31.4747 82.9744C32.2928 82.9744 32.9279 83.2326 33.3907 83.7489C33.8536 84.2544 34.0797 84.8783 34.0797 85.5882C34.0797 86.2981 33.8428 86.922 33.3907 87.4383C32.9279 87.9438 32.2928 88.202 31.4747 88.202H23.7029V89.7724H31.4747C32.2928 89.7724 32.9279 90.0306 33.3907 90.5469C33.8536 91.0524 34.0797 91.6763 34.0797 92.3862C34.0797 93.0961 33.8428 93.72 33.3907 94.2363C32.9279 94.7419 32.2928 95 31.4747 95H21.1302C19.4187 95 18.5576 94.1287 18.5576 92.3862V78.7794C18.5576 77.0369 19.4187 76.1656 21.1302 76.1656H31.4747C32.2928 76.1656 32.9279 76.4238 33.3907 76.9401C33.8536 77.4456 34.0797 78.0695 34.0797 78.7794C34.0797 79.4894 33.8428 80.1132 33.3907 80.6295C32.9279 81.1351 32.2928 81.3932 31.4747 81.3932H23.7029V82.9637H31.4747V82.9744ZM48.7729 81.404H42.7556C42.0667 81.404 41.7223 81.6729 41.7223 82.1892C41.7223 82.7055 42.0667 82.9744 42.7556 82.9744H46.986C50.6674 83.082 52.4973 85.0827 52.4973 88.9872C52.4973 92.8918 50.549 95 46.6631 95H39.9569C38.267 95 37.4381 94.1287 37.4812 92.3862C37.5242 90.6437 38.3638 89.7724 39.9892 89.7724H46.9429C47.6319 89.7724 47.9763 89.5035 47.9763 88.9872C47.9763 88.4709 47.6319 88.202 46.9429 88.202H42.7126C39.0312 88.0944 37.2013 86.0938 37.2013 82.1892C37.2013 78.2847 39.1604 76.1764 43.0893 76.1764H48.7944C50.4844 76.1764 51.3132 77.0477 51.2702 78.7902C51.2271 80.5327 50.3875 81.404 48.7621 81.404H48.7729ZM69.3219 80.6403C68.859 81.1458 68.2239 81.404 67.4058 81.404H64.5963V92.397C64.5963 93.236 64.338 93.8813 63.8321 94.3223C63.3154 94.7634 62.7018 94.9785 61.9914 94.9785C61.281 94.9785 60.6997 94.7526 60.1938 94.3223C59.6771 93.8813 59.4187 93.236 59.4187 92.397V81.404H56.0926C55.2745 81.404 54.6394 81.1458 54.1765 80.6403C53.7137 80.124 53.4876 79.5109 53.4876 78.7902C53.4876 78.0695 53.7244 77.4564 54.1765 76.9509C54.6394 76.4346 55.2745 76.1764 56.0926 76.1764H67.3951C68.2131 76.1764 68.8482 76.4346 69.3111 76.9509C69.774 77.4564 70 78.0803 70 78.7902C70 79.5001 69.7632 80.124 69.3111 80.6403H69.3219Z" fill="#323232"/>
</svg>
