<svg width="47" height="53" viewBox="0 0 47 53" fill="none" xmlns="http://www.w3.org/2000/svg">
<path d="M25.1132 46.9965C24.882 49.8934 21.0789 50.8022 19.5631 48.3226L16.9024 43.9702C16.2245 42.8613 14.9097 42.315 13.6456 42.617L8.68395 43.8025C5.85734 44.4779 3.81785 41.1417 5.70764 38.9339L9.02485 35.0584C9.86999 34.071 9.98323 32.6518 9.30534 31.5429L6.64464 27.1905C5.12884 24.7109 7.67154 21.7403 10.3553 22.8553L15.0661 24.8126C16.2663 25.3112 17.6512 24.9804 18.4963 23.993L21.8135 20.1175C23.7033 17.9097 27.3143 19.41 27.0831 22.3069L26.6774 27.3921C26.574 28.6876 27.3166 29.9024 28.5168 30.4011L33.2277 32.3583C35.9114 33.4734 35.6004 37.3712 32.7738 38.0466L27.8122 39.2321C26.5481 39.5341 25.6223 40.6158 25.5189 41.9114L25.1132 46.9965Z" fill="url(#paint0_linear_2520_303)"/>
<path d="M34.5697 16.6087C33.6121 17.6009 31.9443 16.788 32.1358 15.4225L32.4719 13.0254C32.5576 12.4147 32.2403 11.8184 31.6859 11.5482L29.5101 10.4877C28.2706 9.88362 28.5283 8.04627 29.8862 7.80643L32.2697 7.38543C32.877 7.27817 33.3462 6.79207 33.4318 6.18137L33.768 3.78437C33.9595 2.4188 35.7865 2.0961 36.4343 3.31343L37.5712 5.45025C37.8609 5.99465 38.4682 6.29063 39.0754 6.18337L41.459 5.76237C42.8169 5.52253 43.6884 7.16044 42.7308 8.15263L41.0499 9.89426C40.6217 10.338 40.5279 11.007 40.8175 11.5514L41.9545 13.6882C42.6022 14.9056 41.3138 16.2405 40.0742 15.6364L37.8984 14.576C37.3441 14.3058 36.6788 14.4233 36.2506 14.867L34.5697 16.6087Z" fill="url(#paint1_linear_2520_303)"/>
<defs>
<linearGradient id="paint0_linear_2520_303" x1="31.5" y1="49.5" x2="-5.13361" y2="46.6059" gradientUnits="userSpaceOnUse">
<stop stop-color="#C841E1"/>
<stop offset="0.705" stop-color="#50C8C3"/>
</linearGradient>
<linearGradient id="paint1_linear_2520_303" x1="40.5" y1="17.5" x2="26.4872" y2="8.64766" gradientUnits="userSpaceOnUse">
<stop stop-color="#C841E1"/>
<stop offset="0.705" stop-color="#50C8C3"/>
</linearGradient>
</defs>
</svg>
