<svg width="59" height="47" viewBox="0 0 59 47" fill="none" xmlns="http://www.w3.org/2000/svg">
<path d="M5.392 20.5434C4.59831 17.7477 7.84579 15.5697 10.1312 17.3649L14.1427 20.5161C15.1648 21.319 16.5876 21.3724 17.667 20.6485L21.9036 17.8071C24.3172 16.1883 27.3922 18.6038 26.391 21.3321L24.6336 26.1211C24.1859 27.3412 24.5748 28.7109 25.5968 29.5137L29.6084 32.665C31.8937 34.4602 30.5467 38.1311 27.6426 38.022L22.5449 37.8305C21.2461 37.7818 20.0637 38.5748 19.6159 39.7949L17.8586 44.584C16.8574 47.3122 12.9499 47.1655 12.1563 44.3698L10.7631 39.4624C10.4081 38.2122 9.28848 37.3327 7.98971 37.2839L2.89203 37.0924C-0.0120904 36.9833 -1.08 33.2218 1.3336 31.603L5.57025 28.7616C6.64964 28.0376 7.14013 26.701 6.78518 25.4507L5.392 20.5434Z" fill="url(#paint0_linear_2520_302)"/>
<path d="M42.2075 4.69688C43.0625 2.73732 45.9255 3.01665 46.3856 5.10452L47.1932 8.7694C47.399 9.70312 48.1826 10.3982 49.1342 10.491L52.8692 10.8554C54.9971 11.063 55.6161 13.8722 53.7726 14.955L50.5367 16.8556C49.7123 17.3398 49.2934 18.2998 49.4992 19.2336L50.3068 22.8984C50.7669 24.9863 48.2865 26.4431 46.687 25.0245L43.8795 22.5342C43.1642 21.8998 42.1217 21.7981 41.2973 22.2823L38.0613 24.1829C36.2178 25.2657 34.0658 23.3568 34.9208 21.3973L36.4216 17.9576C36.8039 17.0813 36.5785 16.0584 35.8632 15.424L33.0557 12.9337C31.4563 11.515 32.6066 8.87847 34.7345 9.08608L38.4696 9.4505C39.4212 9.54334 40.3243 9.01287 40.7067 8.13653L42.2075 4.69688Z" fill="url(#paint1_linear_2520_302)"/>
<defs>
<linearGradient id="paint0_linear_2520_302" x1="5.72088" y1="24.4026" x2="35.0739" y2="15.6864" gradientUnits="userSpaceOnUse">
<stop stop-color="#50C8C3"/>
<stop offset="1" stop-color="#C841E1"/>
</linearGradient>
<linearGradient id="paint1_linear_2520_302" x1="40.5915" y1="7.04368" x2="61.3445" y2="15.8029" gradientUnits="userSpaceOnUse">
<stop stop-color="#50C8C3"/>
<stop offset="1" stop-color="#C841E1"/>
</linearGradient>
</defs>
</svg>
