<svg width="72" height="89" viewBox="0 0 72 89" fill="none" xmlns="http://www.w3.org/2000/svg">
<g clip-path="url(#clip0_162_928)">
<path fill-rule="evenodd" clip-rule="evenodd" d="M4.13281 33.2482H6.48263V45.2349H10.7079V39.2301H17.8025L19.3389 34.8837L17.2148 28.8789H5.66927L4.13281 33.2482ZM10.7079 34.8599V33.2482H14.1879L14.7756 34.8599H10.7088H10.7079ZM20.2434 33.2482H22.7968L23.881 39.253H27.2708L25.1697 45.2349H29.7117L35.4734 28.8789H30.9092L28.8081 34.8837H27.2717L26.368 28.8789H21.7808L20.2443 33.2482H20.2434Z" fill="#161616"/>
<path fill-rule="evenodd" clip-rule="evenodd" d="M4.76562 56.7142H7.44822L7.8996 55.41H10.422V56.7142H12.9046V47.1025H6.77027L5.85424 49.6697H7.2482L4.76562 56.7132V56.7142ZM8.80236 52.8418L9.9308 49.6697H10.422V52.8418H8.80236ZM15.481 49.6697V56.7132H17.9635V53.1979H20.4461V56.7132H22.9287V47.1016H20.4461V50.616H17.9635V47.1016H15.003L14.1003 49.6688H15.481V49.6697ZM25.506 49.6697V56.7132H27.9886L30.4711 51.9898V56.7132H32.9537V47.1016H30.4711L27.9886 51.825V47.1016H25.028L24.1253 49.6688H25.506V49.6697ZM36.5665 56.7132L38.9429 49.9717V56.7132H42.8601L45.2763 49.8481V56.7132H47.7589V47.1016H43.6956L41.4254 53.5685V47.1016H35.8885L34.9725 49.6688H36.3665L33.8839 56.7123H36.5656L36.5665 56.7132ZM50.3353 49.6697V56.7132H56.2439V54.146H52.8178V53.1988H55.2871V50.6169H52.8178V49.6697H56.2439V47.1025H49.8573L48.9546 49.6697H50.3353Z" fill="#161616"/>
<path fill-rule="evenodd" clip-rule="evenodd" d="M71.8106 4.5694C71.7442 4.66184 71.7132 4.78082 71.6301 4.96661C71.3291 4.41381 70.8937 4.11728 70.437 3.87109C70.5494 3.69811 70.6618 3.56082 70.7335 3.40341C70.8627 3.11694 70.6645 2.89088 70.5441 2.67306C70.1237 1.918 69.4732 1.45032 68.674 1.22151C68.4678 1.16294 68.2253 1.24165 67.9996 1.25721C67.9695 1.2746 67.9385 1.29107 67.9075 1.30846L67.7633 1.43751C67.7146 1.4192 67.6677 1.39541 67.6243 1.3652C67.334 1.10894 67.0446 0.850847 66.7587 0.590924C66.7215 0.551569 66.687 0.510384 66.6561 0.465538L66.7906 0.321848L67.0419 0.151616C67.8774 -0.192508 68.6235 0.109516 69.3369 0.525027C70.4706 1.18673 71.3814 2.08457 71.8655 3.36222C72.0124 3.74936 72.0903 4.1786 71.8106 4.57123V4.5694ZM70.3069 2.8982C70.3733 3.06386 70.3343 3.27527 70.3432 3.46473L70.2662 3.45283C69.8387 2.49733 69.0324 2.02782 68.0907 1.67912C68.1341 1.64252 68.1828 1.61414 68.235 1.59309C69.19 1.44483 70.0246 2.20355 70.306 2.89729L70.3069 2.8982ZM68.4377 2.50832C68.9891 2.67946 69.4882 2.93756 69.7263 3.52605C69.8325 3.7878 69.9502 4.06603 69.7511 4.34517C69.7201 4.37812 69.6865 4.40832 69.6511 4.43578C69.3209 3.59835 68.6651 3.13525 67.9164 2.78563C68.0314 2.51198 68.212 2.43876 68.4377 2.50923V2.50832ZM67.9234 5.36107C67.6659 5.22836 67.4314 5.05172 67.2305 4.83756C66.9375 4.51266 66.6932 4.14016 66.4295 3.7878C66.4436 3.764 66.4569 3.74112 66.4702 3.71824C66.6605 3.72465 66.8499 3.72465 67.0393 3.74021C67.0924 3.74936 67.1402 3.77956 67.1729 3.82532C67.588 4.42022 68.0766 4.92268 68.7634 5.18626C68.5439 5.4352 68.2261 5.52306 67.9234 5.36107ZM68.6156 3.42079C68.9572 3.60475 69.1475 3.91593 69.3378 4.23077C69.3563 4.29941 69.3395 4.37263 69.2926 4.4248C69.0935 4.56391 68.8864 4.69204 68.6731 4.80736C68.6094 4.8339 68.5386 4.83115 68.4766 4.80004C68.2536 4.67191 68.0376 4.52913 67.819 4.39093C67.5367 4.0761 67.5296 4.02484 67.7438 3.65967C68.0651 3.11145 68.0597 3.12335 68.6147 3.42079H68.6156ZM67.5216 1.70017C67.5712 1.79444 67.627 1.88597 67.6898 1.972C67.8615 2.17975 67.9411 2.36554 67.7376 2.6218C67.6172 2.77373 67.6677 2.95769 67.9279 3.01077C67.7562 3.29449 67.5986 3.55533 67.4216 3.84729C67.1623 3.39151 66.7561 3.57913 66.41 3.5471C66.2764 3.53428 66.2295 3.66241 66.2578 3.79878C66.2781 3.86285 66.2994 3.926 66.3197 3.99006L66.2622 3.95071C66.2241 3.99098 66.187 4.03125 66.1489 4.07152L66.1507 4.07701L66.2241 4.56665C66.2719 5.07277 66.3188 5.57981 66.3737 6.15548L64.6647 6.21955C64.7408 6.76502 64.8249 7.36724 64.9107 7.98776C64.9833 7.98684 65.0568 7.98959 65.1293 7.996C65.6763 8.07105 66.2241 8.14243 66.7702 8.23121C66.8596 8.24585 66.9384 8.33738 67.0216 8.3932C67.0526 8.45635 67.0844 8.5195 67.1154 8.58265C67.1154 8.60279 67.1136 8.62384 67.1127 8.64398L66.9446 8.70163C66.9304 8.70804 66.918 8.71719 66.9083 8.73001C66.8888 8.70255 66.8702 8.67418 66.8525 8.64672L62.9795 8.23945C62.8972 8.21748 62.814 8.1946 62.6981 8.1644C62.7415 8.33188 62.7733 8.45361 62.8052 8.57442C62.8158 9.17023 62.83 9.76696 62.8282 10.3628C62.8087 10.447 62.7503 10.5165 62.6724 10.5476C62.1175 10.7069 61.5564 10.7719 60.9315 10.554C61.2554 11.1755 61.3183 11.7978 61.3767 12.4229C61.3802 12.4659 61.4971 12.5245 61.5634 12.5291C61.8891 12.5511 62.2157 12.5566 62.5414 12.5685C62.5636 12.627 62.5892 12.6847 62.6193 12.7396C62.6618 12.8 62.7078 12.8586 62.7556 12.9144C62.452 12.9336 62.1502 12.9556 61.8467 12.973C61.0068 13.0206 60.1713 13.0224 59.3561 12.7588C59.3667 12.8513 59.3765 12.9437 59.3871 13.0361C59.4021 13.1752 59.3871 13.0407 59.3871 13.0407L59.5022 13.2485L59.7845 14.0227C59.796 14.0758 59.8075 14.128 59.819 14.1811C59.8889 14.4318 59.9588 14.6826 60.0111 14.8712L61.8183 15.0213C61.8033 14.9435 61.7883 14.8666 61.7741 14.7888C61.5289 14.3367 61.5121 13.8351 61.451 13.3592C62.0263 13.2549 62.5724 13.156 63.1185 13.0572L63.5566 13.0151C63.5681 13.005 63.5787 12.9949 63.5893 12.984L63.7336 12.973C63.7327 12.9528 63.7301 12.9336 63.7292 12.9135L63.4876 12.8668C63.5132 12.7771 63.5796 12.6737 63.5566 12.5996C63.4955 12.3982 63.3442 12.2143 63.3238 12.0129C63.2212 11.029 63.1495 10.0415 63.0663 9.05583C63.0388 8.92953 63.0105 8.80322 62.9813 8.67692C62.9972 8.67235 63.0105 8.6632 63.0211 8.64947C63.0663 8.74282 63.1114 8.83526 63.1565 8.92861C63.1627 8.95149 63.1681 8.97529 63.1734 8.99817C63.1858 9.00366 63.1937 9.01647 63.1946 9.03111C63.3176 9.42741 63.4407 9.8237 63.5637 10.22L63.661 10.3271C64.1956 10.1761 64.7346 10.1898 65.2754 10.2795C65.2842 10.2465 65.2922 10.2145 65.3001 10.1816C65.0452 9.75597 64.9868 9.28006 64.9444 8.82702L66.8826 8.75746L67.2853 8.73367C67.2446 8.62476 67.2039 8.51584 67.1641 8.40785C67.1083 8.26141 67.026 8.11955 66.9995 7.96763C66.8198 6.94807 66.6516 5.92668 66.4808 4.9062C66.4348 4.78997 66.3888 4.67282 66.3427 4.55659C66.356 4.51266 66.3684 4.46781 66.3817 4.42388C66.4843 4.5996 66.5879 4.77533 66.6906 4.95105L66.8614 5.34368C66.8755 5.39402 66.8906 5.44435 66.9048 5.49469C66.9295 5.57065 66.9552 5.64662 66.9791 5.72258C66.9915 5.78207 67.0039 5.84248 67.0163 5.90197C67.0366 5.92759 67.0579 5.95413 67.0782 5.97976L67.1924 5.98708C67.734 5.9102 68.2854 5.97152 68.7988 6.16647L68.8306 6.05206C68.7855 5.95413 68.7403 5.8562 68.6943 5.75919C68.6793 5.70428 68.6634 5.64845 68.6474 5.59354C68.7368 5.52032 68.8253 5.4471 68.9147 5.37388C68.9342 5.34734 68.9537 5.31988 68.9731 5.29334C68.9775 5.25033 68.982 5.20731 68.9864 5.16338L68.7749 4.95105C68.92 4.87417 69.051 4.80553 69.182 4.73597C69.2094 4.71767 69.2369 4.70028 69.2643 4.68197L69.3519 4.62981C69.467 4.46323 69.582 4.62157 69.698 4.62981C69.7413 4.60418 69.7856 4.57855 69.8298 4.55293C69.9201 4.36164 70.0573 4.29483 70.2529 4.38178C70.5698 4.52272 70.8866 4.66367 71.2043 4.8037C71.2327 4.82292 71.2619 4.84305 71.2902 4.86227C71.3282 4.89522 71.3663 4.92725 71.4035 4.9602C71.4336 5.00962 71.4628 5.05905 71.492 5.10847C71.3867 5.23385 71.2813 5.36015 71.176 5.48554L70.9955 5.72258C70.9309 5.79763 70.8662 5.87359 70.8016 5.94864L70.6193 6.18111L70.3025 6.5591C70.2414 6.63689 70.1803 6.7156 70.1193 6.79339C70.0449 6.88217 69.9715 6.97003 69.8962 7.05881L69.7139 7.29219C69.6086 7.41758 69.5024 7.54296 69.3953 7.66743C69.3342 7.74614 69.274 7.82485 69.2139 7.90264C69.1386 7.99051 69.0643 8.07837 68.9891 8.16623L68.8404 8.36209L68.6244 8.63208L68.5058 8.79133C68.4324 8.88102 68.3598 8.97071 68.2863 9.05949C68.2368 9.12538 68.1872 9.19128 68.1385 9.25718C68.0465 9.37158 67.9553 9.4869 67.8641 9.6013C67.8341 9.64248 67.804 9.68458 67.7739 9.72577C67.7102 9.80173 67.6464 9.8777 67.5827 9.95275C67.5641 9.97929 67.5446 10.0067 67.5261 10.0333L67.2145 10.4177C67.1667 10.4845 67.1172 10.5513 67.0685 10.6181C67.0048 10.6941 66.941 10.77 66.8773 10.8451C66.8171 10.9238 66.7578 11.0025 66.6976 11.0812C66.6065 11.1956 66.5144 11.31 66.4233 11.4244C66.3932 11.4656 66.3622 11.5077 66.3312 11.5489L66.141 11.7759C66.1206 11.8042 66.1002 11.8317 66.0799 11.8601L65.6851 12.3543C65.6657 12.3836 65.6462 12.4138 65.6267 12.4431L64.8674 13.4196C64.8452 13.4434 64.8222 13.4672 64.7992 13.491L64.4939 13.8827L64.4346 13.9651C64.3425 14.0813 64.2514 14.1966 64.1602 14.3129L64.1009 14.3925C64.0797 14.4172 64.0584 14.441 64.0372 14.4657C64.0195 14.4941 64.0009 14.5225 63.9823 14.5508C63.9195 14.6268 63.8557 14.7018 63.7938 14.7778C63.7743 14.8053 63.7557 14.8336 63.7371 14.8611C63.6646 14.9517 63.5929 15.0423 63.5194 15.1329C63.4796 15.1851 63.4398 15.2363 63.399 15.2885L63.338 15.3635L63.2805 15.4459L63.1831 15.5612C63.1344 15.6271 63.0849 15.693 63.0362 15.7589C62.9733 15.8358 62.9105 15.9127 62.8477 15.9905L62.7901 16.0701C62.7698 16.0939 62.7485 16.1168 62.7273 16.1406L62.6698 16.2266L62.4813 16.4572C62.4335 16.524 62.3839 16.5909 62.3352 16.6568C62.2724 16.7327 62.2087 16.8096 62.1467 16.8856C62.1166 16.9249 62.0865 16.9643 62.0573 17.0027C61.9653 17.1189 61.8732 17.2352 61.7812 17.3514L61.6343 17.5518L61.5095 17.7074C61.459 17.7715 61.4068 17.8356 61.3563 17.8996L61.1705 18.1339C61.1209 18.1989 61.0705 18.2639 61.0209 18.328C60.9492 18.4195 60.8784 18.5101 60.8058 18.6007C60.7563 18.6666 60.7067 18.7325 60.6563 18.7975C60.5934 18.8743 60.5306 18.9512 60.4669 19.0272L60.3182 19.223C60.2456 19.3137 60.173 19.4033 60.1013 19.494L59.9544 19.6935C59.8907 19.7694 59.8279 19.8463 59.7641 19.9223L59.6137 20.1181L59.3968 20.3881L59.2508 20.5886L59.0614 20.8165L58.8835 21.0544C58.8207 21.1304 58.7578 21.2063 58.6941 21.2823C58.6445 21.3491 58.5959 21.4159 58.5463 21.4827C58.4835 21.5587 58.4206 21.6347 58.3578 21.7115L58.2702 21.8323C58.2073 21.9101 58.1445 21.987 58.0825 22.0648L57.9338 22.2598L57.7179 22.5316L57.5665 22.7265L57.3488 22.9965L57.2285 23.1521L57.1656 23.2262L57.1081 23.3086C57.0762 23.347 57.0435 23.3855 57.0116 23.4239C56.9514 23.5017 56.8921 23.5804 56.832 23.6582L56.6434 23.8889L56.493 24.0829L56.2761 24.3538C56.2257 24.4188 56.1752 24.4837 56.1257 24.5487L55.9062 24.8178C55.8655 24.8691 55.8248 24.9203 55.784 24.9716L55.723 25.0475L55.661 25.1262L55.0025 25.8575L54.7246 26.2035C54.6937 26.2428 54.6627 26.2812 54.6308 26.3206L54.5175 26.4835L54.3998 26.6437L54.345 26.7279L53.9927 27.212L53.8113 27.4454C53.7387 27.5351 53.6652 27.6248 53.5927 27.7145L53.4431 27.9113L53.2201 28.1776L53.0696 28.3716C52.9961 28.4613 52.9227 28.551 52.8492 28.6416C52.7581 28.7569 52.666 28.8732 52.5748 28.9885L52.2969 29.3289L52.1721 29.4882L51.981 29.7161L51.8287 29.9101L51.765 29.9833L51.7057 30.0648L51.6084 30.1792L51.4207 30.4098L51.1119 30.7896L50.9322 31.0267L50.8658 31.0981L50.7994 31.1713L50.7392 31.2527L50.5888 31.4477C50.5622 31.4907 50.5357 31.5328 50.5091 31.5758L50.0542 32.0938L49.8321 32.3611C49.7692 32.4361 49.7064 32.5112 49.6435 32.5862L49.2993 33.0063L49.0187 33.3504L48.7921 33.6131L48.608 33.8437L48.5417 33.9142L48.4824 33.9957L48.2576 34.2583L48.0726 34.489L47.7513 34.8642L47.4398 35.2449L47.184 35.5451L46.9016 35.8865L46.5467 36.2965L46.3635 36.5299L46.0883 36.8731C46.0688 36.9015 46.0485 36.9299 46.029 36.9592L45.8431 37.1907L45.7555 37.3115L45.5723 37.5467C45.5254 37.5623 45.4785 37.5751 45.4325 37.5934C45.4785 37.576 45.5263 37.5623 45.5723 37.5467C45.1979 38.0382 44.8846 38.58 44.3403 38.9214C44.1323 39.0523 43.9845 39.2985 43.8341 39.5117C43.7048 39.6948 43.6013 39.7094 43.4234 39.573C41.7285 38.2817 40.1584 36.8237 38.7344 35.2212C38.6158 35.0857 38.5768 34.9887 38.6963 34.845C38.7636 34.7635 38.8193 34.672 38.8813 34.5851L38.9379 34.5045L39.3052 34.1092L39.4858 33.9435L39.5584 33.8923L40.3292 33.0521L40.8656 32.4718L41.0868 32.2082L41.1523 32.1378C41.1727 32.1103 41.1931 32.0829 41.2125 32.0554C41.2878 31.9684 41.3639 31.8824 41.4391 31.7955C41.4586 31.7698 41.478 31.7442 41.4975 31.7186L41.5657 31.6463L41.7542 31.4175L42.1064 31.0056L42.2958 30.7796L42.6472 30.365L42.8357 30.1389L42.9012 30.0666C42.9233 30.0373 42.9464 30.008 42.9685 29.9788L43.3136 29.5742L43.5022 29.3463L43.7234 29.0791C43.7845 29.0022 43.8464 28.9253 43.9075 28.8485L44.2235 28.4686L44.4102 28.2398L44.7244 27.8582C44.7864 27.7813 44.8492 27.7053 44.9112 27.6285L45.2572 27.2111L45.3165 27.1315C45.4218 27.0052 45.5272 26.878 45.6325 26.7517L45.8175 26.521L46.0396 26.2547L46.2237 26.025C46.329 25.8978 46.4343 25.7715 46.5397 25.6443L46.7255 25.4154C46.799 25.3258 46.8716 25.2361 46.945 25.1464C47.0397 25.0283 47.1344 24.9102 47.2282 24.7922L47.4097 24.5707L47.5991 24.3291L47.8124 24.0692L47.9673 23.8779C48.0363 23.7946 48.1053 23.7122 48.1744 23.6298L48.3708 23.3791L48.6824 22.9956L48.8417 22.7924L49.1506 22.4218L49.247 22.311C49.4276 22.0978 49.609 21.8845 49.7896 21.6713L49.8799 21.5532L50.0259 21.3509L50.1463 21.1935L50.3578 20.919L50.4852 20.7533L50.6658 20.53L50.8189 20.336L51.0349 20.0651L51.1889 19.8729C51.2614 19.7832 51.334 19.6926 51.4066 19.6029L51.5641 19.3997C51.6349 19.3127 51.7057 19.2258 51.7774 19.1388L51.9296 18.9457L52.2403 18.5613L52.4288 18.3197C52.489 18.2456 52.5492 18.1715 52.6094 18.0973L52.6695 18.0195L52.9802 17.6333C53.0413 17.5555 53.1032 17.4786 53.1643 17.4008L53.351 17.1702L53.5042 16.9771L53.7201 16.7053L53.8714 16.5103L54.0901 16.2412L54.2405 16.0463L54.4574 15.7754L54.6105 15.5823L54.8264 15.3114L54.9787 15.1164L55.1654 14.8849L55.3477 14.6515L55.5354 14.4209C55.5858 14.3559 55.6362 14.2918 55.6867 14.2268L55.9026 13.955L56.0858 13.7226L56.2717 13.4901C56.3222 13.4251 56.3726 13.3601 56.4231 13.2951L56.6399 13.0242L56.7921 12.8311L57.0081 12.5593L57.1603 12.3653L57.3471 12.1328L57.5294 11.8994L57.7152 11.667L57.8666 11.4729L58.0825 11.2011L58.2348 11.008L58.4498 10.7353L58.6029 10.5421L58.7897 10.3097L58.9711 10.0763L59.1588 9.84566L59.3473 9.60404L59.5261 9.3789L59.6783 9.18579C59.75 9.09518 59.8225 9.00457 59.8934 8.91397C59.9465 8.84624 59.9987 8.77851 60.0509 8.71079C60.1102 8.63574 60.1704 8.56161 60.2306 8.48656L60.4129 8.25317C60.4739 8.17538 60.5368 8.0985 60.5979 8.02071C60.6483 7.95573 60.6987 7.89075 60.7492 7.82577C60.8209 7.73516 60.8926 7.64455 60.9643 7.55394C61.0147 7.48896 61.0661 7.42398 61.1165 7.359C61.1882 7.26839 61.2599 7.17779 61.3316 7.0881C61.374 7.03318 61.4165 6.97827 61.459 6.92244C61.5289 6.83458 61.598 6.74763 61.6688 6.65977L61.821 6.46574L62.037 6.19484C62.0874 6.12986 62.137 6.06396 62.1883 5.99898C62.2494 5.92119 62.3113 5.84431 62.3733 5.76651L62.5618 5.52489C62.6211 5.45076 62.6813 5.37571 62.7406 5.30158C62.76 5.27504 62.7795 5.2485 62.799 5.22195C62.9017 5.09291 63.0043 4.96386 63.1079 4.83482L63.2583 4.63713L63.3398 4.54194C63.3937 4.47056 63.4486 4.39917 63.5026 4.32778C63.6053 4.19873 63.7079 4.06969 63.8106 3.94064C63.8301 3.91319 63.8495 3.88664 63.869 3.85919C63.931 3.78139 63.9929 3.7036 64.0549 3.62581C64.1053 3.56082 64.1558 3.49676 64.2071 3.43178L64.4213 3.15813C64.4717 3.09314 64.5222 3.02816 64.5735 2.96318L64.7576 2.7298L64.9399 2.4955C65.2116 2.14406 65.4825 1.7917 65.7533 1.44025C65.7843 1.4009 65.8144 1.36154 65.8453 1.32127C65.8931 1.25446 65.9409 1.18765 65.9896 1.11992C66.0108 1.09338 66.0321 1.06684 66.0533 1.03938C66.087 1.00277 66.1197 0.96708 66.1533 0.930471C66.3604 0.789527 66.5578 0.803255 66.7428 0.974402C67.0048 1.21602 67.265 1.45856 67.5252 1.70201L67.5216 1.70017ZM47.9442 26.7736C47.9593 26.8716 47.9814 26.9686 47.9876 27.0665C48.0248 27.6623 48.0593 28.259 48.0912 28.8558C48.0832 28.9107 48.0708 28.9656 48.0531 29.0178L46.2839 28.6508C46.3671 29.4205 46.4547 30.2277 46.5459 31.0752L44.0049 30.9498L43.6889 30.8702C43.734 31.0377 43.7641 31.1512 43.7951 31.2637C43.7995 31.3525 43.804 31.4413 43.8084 31.531C43.8296 32.3693 43.8509 33.2077 43.873 34.0991C43.3411 34.0542 42.8614 34.0332 42.3879 33.97C41.6683 33.8749 40.9975 33.6351 40.4178 33.1637L39.6716 33.9591L39.7168 34.0277L39.8212 34.133C41.2763 35.7804 42.9021 37.2584 44.6695 38.5388L45.2643 37.6575L44.9041 37.2548L44.8359 37.1193L44.4908 36.1858C44.4784 36.1327 44.4651 36.0796 44.4527 36.0266C44.4253 35.9414 44.3916 35.8572 44.3713 35.7703C44.0828 34.51 44.2164 33.2132 44.0597 31.941C44.0181 31.8138 43.9721 31.6875 43.9376 31.5575C43.9084 31.4468 43.873 31.434 43.8084 31.5301C43.804 31.4413 43.7995 31.3525 43.7951 31.2628C43.8199 31.2134 43.842 31.1621 43.8712 31.1155C43.896 31.0807 43.9234 31.0477 43.9535 31.0175C44.0385 31.3131 44.1235 31.6097 44.2093 31.9053C44.25 32.0554 44.2837 32.2073 44.3093 32.3611C44.3775 32.9166 44.4368 33.474 44.4987 34.0259L46.999 34.0323C46.9919 34.0204 46.9955 34.0039 47.007 33.9966C47.0096 33.9948 47.0132 33.9938 47.0158 33.9929L46.5892 33.5216L46.4936 33.4017C46.0299 32.8059 45.8405 32.1149 45.8086 31.3644C46.891 31.3644 47.9469 31.3671 49.0037 31.3607C49.0638 31.3607 49.1231 31.2967 49.1824 31.2619L49.093 31.1365L48.8585 30.6743L48.7921 30.4849C48.7691 30.4519 48.7514 30.4162 48.7381 30.3778C48.5886 29.5815 48.4452 28.7853 48.2921 27.99C48.208 27.5552 48.108 27.1233 48.015 26.6904L47.9451 26.7691L47.9442 26.7736ZM49.6878 26.6217C49.1594 26.5393 48.6364 26.4204 48.1106 26.3179C48.1168 26.3563 48.123 26.3938 48.1301 26.4323C48.1788 26.4698 48.254 26.4972 48.2735 26.5476C48.408 26.8752 48.5266 27.2102 48.6275 27.5507C48.7461 27.9872 48.8266 28.4348 48.9213 28.8686L50.6454 28.7716C50.5587 28.2215 50.4693 27.6468 50.3843 27.1031L51.9482 27.0391C51.9482 27.0098 51.9482 26.9805 51.9482 26.9503C51.8641 26.9247 51.7792 26.9036 51.6924 26.8871C51.0251 26.7974 50.3551 26.7242 49.6896 26.6208L49.6878 26.6217ZM50.2144 24.2687C50.2834 24.9185 50.3542 25.5921 50.4268 26.2794C50.4844 26.2822 50.556 26.2812 50.6268 26.2904C51.0809 26.3481 51.5358 26.4011 51.9872 26.4753C52.0721 26.489 52.1438 26.5888 52.2217 26.6492L52.3217 26.6391C52.2943 26.5009 52.2589 26.3645 52.2403 26.2254C52.0615 24.8562 51.8845 23.4871 51.7093 22.117C51.6942 22.0612 51.6783 22.0053 51.6632 21.9495L51.6367 21.9074L51.5269 21.8076C51.5172 21.8378 51.511 21.8699 51.5092 21.9019C51.5712 22.6204 51.6349 23.3379 51.6969 24.0563C51.7057 24.1598 51.7084 24.2641 51.7163 24.4279L50.2126 24.2687H50.2144ZM51.7969 21.5816L51.4933 21.4379L51.4429 21.4873C51.4827 21.5816 51.5225 21.6768 51.5623 21.771C51.5765 21.7436 51.5915 21.7152 51.6057 21.6877C51.6048 21.6676 51.6031 21.6475 51.6022 21.6273C51.6092 21.6292 51.6163 21.6319 51.6225 21.6365C51.6995 21.7015 51.7774 21.7674 51.8535 21.8333C52.3438 22.5599 52.5235 23.3946 52.6341 24.2495L54.3715 24.1469C54.3697 24.1186 54.3662 24.0728 54.3627 24.0261C54.3467 23.9749 54.3299 23.9227 54.314 23.8715L54.2423 23.6463C54.2308 23.585 54.2184 23.5228 54.2069 23.4614C54.16 23.1393 54.1131 22.818 54.0662 22.4913L55.7354 22.344C55.7725 22.2881 55.9389 22.3128 55.8372 22.1701C55.4619 22.1627 55.0857 22.1408 54.7105 22.1499C53.7113 22.1847 52.7165 21.9916 51.7978 21.5825L51.7969 21.5816ZM53.9139 19.6029C53.9768 20.2637 54.0423 20.9537 54.1095 21.6585C54.1803 21.6621 54.268 21.6612 54.3538 21.6731C54.9574 21.7573 55.561 21.8378 56.162 21.9394C56.2496 21.9541 56.3222 22.0721 56.4009 22.1426L56.4089 21.8607C56.3673 21.7546 56.3018 21.652 56.2885 21.5422C56.1434 20.3524 56.0062 19.1617 55.8672 17.971C55.8522 17.8859 55.8265 17.8035 55.792 17.7248C55.7451 17.6663 55.6902 17.615 55.6283 17.5738C55.6566 18.2749 55.6849 18.9769 55.7168 19.7539L53.9157 19.6019L53.9139 19.6029ZM59.3393 13.351C59.3296 13.3327 59.3198 13.3153 59.311 13.297C59.311 13.2851 59.311 13.2732 59.3074 13.2622C59.2977 13.2173 59.2871 13.1725 59.2774 13.1277L59.165 13.1871C59.1676 13.2695 59.1712 13.351 59.1738 13.4333C59.1658 13.9706 59.157 14.5087 59.1481 15.1109L57.6807 15.2107L57.8577 16.9936C57.9073 16.9981 57.994 17.0036 58.0808 17.0137C58.6313 17.0778 59.1827 17.1327 59.7305 17.2141C59.8367 17.2297 59.9288 17.3496 60.027 17.421C59.9385 17.4448 59.8509 17.4676 59.7624 17.4914C59.4269 17.4768 59.0924 17.4576 58.7569 17.4493C57.7639 17.4237 56.7647 17.4878 55.7956 17.1784C55.7646 17.1684 55.7124 17.2315 55.6699 17.2608L56.0248 17.9426C56.1646 18.49 56.3053 19.0373 56.4505 19.6056C56.5399 19.5965 56.6656 19.5782 56.793 19.5699C57.247 19.5406 57.7011 19.5141 58.1542 19.4866C58.1268 19.4235 58.0993 19.3612 58.0719 19.2981L58.0215 19.1992C57.9985 19.1379 57.9754 19.0775 57.9533 19.0162C57.7551 18.6236 57.7418 18.2053 57.7613 17.8099L59.734 17.5912L59.7633 17.4914C59.8518 17.4676 59.9394 17.4448 60.0279 17.421L60.0978 17.4109L59.8243 16.7767C59.8075 16.7254 59.7907 16.6732 59.7739 16.622C59.6978 16.2861 59.5942 15.9539 59.5508 15.6134C59.457 14.8766 59.3942 14.1353 59.3181 13.3958L59.3411 13.351H59.3393ZM38.9893 35.9579L39.045 36.0266L39.1902 36.1739C39.2088 36.1977 39.2274 36.2206 39.2468 36.2444L39.3247 36.3167L40.4965 37.4946L40.5779 37.565L40.7523 37.728L40.8638 37.8268L41.371 38.2872L41.486 38.3833L42.2702 39.0504L42.3516 39.1099L42.5702 39.3021L42.6587 39.3589L43.0233 39.6801L43.2163 39.8394L43.3614 39.9574C43.3119 39.9748 43.2411 40.0233 43.2154 40.005C42.8729 39.7588 42.5259 39.5163 42.2002 39.2472C40.8957 38.1645 39.6902 36.9692 38.5149 35.7401C38.4751 35.6769 38.4352 35.6138 38.3963 35.5506L38.3458 35.5882C38.3883 35.6522 38.4308 35.7163 38.4742 35.7804C38.8795 36.2618 39.2619 36.767 39.6973 37.2182C40.2522 37.7929 40.8497 38.3238 41.4285 38.8738C41.8869 39.2188 42.3472 39.5611 42.8047 39.9089C43.103 40.1359 43.4145 40.2329 43.7659 40.048L44.1084 39.9483C44.7952 40.6997 45.4227 41.4721 45.8768 42.3773C45.883 42.4084 45.89 42.4386 45.8962 42.4697L45.8192 42.4615L45.6015 42.3974L45.4776 42.3352L44.5987 41.744L44.4332 41.6268L43.9385 41.2296L43.7792 41.1033L43.5181 40.89L43.434 40.826L43.1809 40.6027L43.0959 40.5377L42.8233 40.3199L42.718 40.2174L42.6171 40.1213L42.4286 39.9611L42.0259 39.6023L41.948 39.5383L41.409 39.0468L41.1842 38.8464L40.5797 38.2807L40.4965 38.213L38.7477 36.4997L38.6609 36.4302L38.4016 36.1501L38.3175 36.0796L37.5148 35.2239L37.4095 35.1177C37.3794 35.0802 37.3493 35.0418 37.3192 35.0042L37.2077 34.8953L36.9236 34.5631C36.8775 34.5128 36.8306 34.4633 36.7846 34.413C36.5501 34.0963 36.3084 33.7861 36.0845 33.4612C35.9881 33.3092 35.919 33.1409 35.8827 32.9633C36.828 33.3751 37.582 34.0561 38.3211 34.6272C38.3255 34.8633 38.3281 35.039 38.3317 35.2157L38.429 35.3337L38.4821 35.4069L38.5556 35.4838L38.8477 35.8115L38.9875 35.957L38.9893 35.9579ZM36.6979 34.6391C39.0512 37.2786 41.6276 39.6966 44.3969 41.862C44.8227 42.1942 45.2962 42.4624 45.7599 42.7681C45.6466 43.1223 45.3794 43.2541 45.0846 43.0481C44.3748 42.5503 43.6464 42.0743 42.9738 41.5261C41.016 39.9208 39.1592 38.1901 37.4121 36.3432C36.7598 35.6577 36.1686 34.91 35.5579 34.1824C35.4464 34.0405 35.3544 33.8831 35.2844 33.7147C35.134 33.3806 35.2508 33.1207 35.6172 32.9624C35.7951 33.6607 36.2607 34.1485 36.6988 34.6391H36.6979ZM32.0708 46.3091C33.2895 45.0433 35.5986 42.4716 36.7642 41.1545C36.8713 41.0328 36.8722 40.9587 36.7713 40.8443C36.5996 40.6484 36.4385 40.4425 36.2677 40.2329C34.8614 41.8318 32.7275 44.4951 31.1468 46.2954H29.5157C31.4522 44.0851 33.9781 41.2772 35.7748 39.2298C35.6765 39.207 35.6022 39.1209 35.5942 39.0184C35.5889 38.9406 35.6508 38.8656 35.7394 38.7731C36.2801 38.2057 36.7979 37.6135 37.3236 37.0306C37.367 36.983 37.4112 36.9372 37.4555 36.8905L42.0595 41.2021C41.7002 41.5847 41.3373 41.9929 40.9514 42.3764C40.4762 42.8477 39.9841 43.3017 39.492 43.7547C39.4265 43.8151 39.3132 43.816 39.2274 43.8572C39.1645 43.8856 39.1088 43.9277 39.0618 43.9789C38.0662 45.0818 37.1625 46.2917 37.1625 46.2917L35.6597 46.2944C36.5642 45.295 37.6148 44.3459 38.5529 43.3804C38.5751 43.3584 38.645 43.287 38.6432 43.1937C38.6423 43.1415 38.6158 43.0884 38.5591 43.0262C38.3733 42.8193 38.206 42.5951 38.0281 42.38C37.8529 42.1686 37.675 41.9581 37.4944 41.7421C36.5934 42.7717 35.1897 44.4301 33.5488 46.3073H32.0699L32.0708 46.3091ZM27.4721 57.4455C20.9501 64.7929 10.9667 75.6466 0.857617 87.981C0.82487 88.0213 0.731939 88.1348 0.700077 88.1732C0.81779 88.2007 0 88.9988 0 88.9988C0 88.9988 1.39396 79.259 1.44618 78.2623C1.67541 78.0555 1.56655 78.0216 1.78692 77.8221C1.86127 77.8852 1.9126 77.5649 2.0312 77.6656C3.64554 75.8388 12.1872 65.9095 19.5924 57.4455H21.1784C18.3383 60.6955 11.3951 68.5271 2.74367 78.3794C2.64543 78.849 2.21352 80.1367 2.21086 80.511C2.25689 80.4689 2.27547 80.4543 2.2914 80.4369C4.48722 77.9777 22.4149 57.4455 22.4149 57.4455H23.6796C20.4766 61.1366 10.9384 72.1413 2.12767 82.2225C1.9365 83.0672 1.53203 85.9191 1.53203 85.9191C1.53203 85.9191 1.93384 85.5163 2.0427 85.391C11.6385 74.3451 16.3593 68.2479 25.9117 57.4455H27.473H27.4721Z" fill="#161616"/>
</g>
<defs>
<clipPath id="clip0_162_928">
<rect width="72" height="89" fill="white"/>
</clipPath>
</defs>
</svg>
