<svg width="380" height="368" viewBox="0 0 380 368" fill="none" xmlns="http://www.w3.org/2000/svg">
<path d="M66.6067 47.2638C56.8024 12.7857 96.918 -14.075 125.149 8.06496L174.703 46.9279C187.329 56.8292 204.904 57.4882 218.238 48.5603L270.572 13.5179C300.387 -6.44556 338.372 23.3436 326.005 56.9903L304.296 116.051C298.765 131.099 303.569 147.99 316.194 157.891L365.748 196.754C393.979 218.894 377.339 264.166 341.465 262.821L278.494 260.459C262.451 259.858 247.844 269.638 242.313 284.686L220.605 343.747C208.237 377.393 159.969 375.583 150.165 341.105L132.955 280.585C128.57 265.166 114.739 254.319 98.6959 253.718L35.7249 251.356C-0.149352 250.011 -13.3411 203.621 16.4738 183.658L68.8086 148.615C82.1422 139.687 88.2011 123.203 83.8165 107.784L66.6067 47.2638Z" fill="url(#paint0_linear_2515_298)"/>
<defs>
<linearGradient id="paint0_linear_2515_298" x1="70.6693" y1="94.8578" x2="433.167" y2="-12.9609" gradientUnits="userSpaceOnUse">
<stop stop-color="#50C8C3"/>
<stop offset="1" stop-color="#C841E1"/>
</linearGradient>
</defs>
</svg>
