<svg width="48" height="48" viewBox="0 0 48 48" fill="none" xmlns="http://www.w3.org/2000/svg">
<rect width="48" height="48" rx="24" fill="#E1E7EC"/>
<path fill-rule="evenodd" clip-rule="evenodd" d="M32.0522 25.9657C32.7866 26.6826 33.5616 27.3571 34.2202 28.1464C34.5112 28.4971 34.7866 28.859 34.9973 29.266C35.2959 29.8446 35.0255 30.4813 34.5066 30.5159L31.2816 30.5144C30.4499 30.5834 29.7863 30.2486 29.2284 29.6799C28.7818 29.2251 28.3684 28.741 27.939 28.2709C27.763 28.0787 27.5788 27.8979 27.3587 27.755C26.9184 27.4692 26.5363 27.5567 26.2847 28.0159C26.0284 28.4829 25.9703 29 25.9452 29.5205C25.9106 30.2799 25.6811 30.4796 24.9182 30.5143C23.288 30.5912 21.7408 30.3446 20.3035 29.5222C19.0363 28.7972 18.0537 27.7737 17.1984 26.6149C15.5332 24.3587 14.2579 21.8794 13.1118 19.3307C12.8538 18.7564 13.0425 18.4482 13.6761 18.4373C14.7282 18.4168 15.7801 18.4183 16.8334 18.4358C17.261 18.4421 17.5441 18.6873 17.7092 19.0913C18.2784 20.4909 18.9749 21.8225 19.8492 23.0568C20.082 23.3854 20.3194 23.714 20.6575 23.9453C21.0315 24.2014 21.3162 24.1165 21.4922 23.6999C21.6038 23.4358 21.6527 23.1512 21.6779 22.8683C21.7612 21.8949 21.7722 20.9232 21.626 19.9532C21.5363 19.3478 21.1953 18.9559 20.5912 18.8414C20.283 18.783 20.3289 18.6683 20.4781 18.4923C20.7374 18.1889 20.9812 18 21.4672 18H25.1119C25.6857 18.1132 25.8131 18.371 25.8917 18.9484L25.8948 22.997C25.8886 23.2205 26.0065 23.8837 26.4091 24.0317C26.7313 24.137 26.9436 23.8792 27.137 23.6749C28.0096 22.7487 28.6325 21.6541 29.1889 20.5207C29.4358 20.0224 29.6481 19.5048 29.8539 18.9877C30.0063 18.6039 30.2455 18.4151 30.6778 18.4235L34.1857 18.4266C34.2897 18.4266 34.3949 18.4281 34.4957 18.4453C35.0868 18.5461 35.2487 18.8004 35.0662 19.3776C34.7785 20.2832 34.2188 21.0379 33.6716 21.796C33.0866 22.6055 32.4609 23.3872 31.8808 24.2015C31.3478 24.9451 31.3902 25.3198 32.0522 25.9657Z" fill="#333333"/>
</svg>
